<svg width="353" height="348" viewBox="0 0 353 348" fill="none" xmlns="http://www.w3.org/2000/svg">
<g clip-path="url(#clip0_1_1141)">
<path d="M344.271 164C344.271 167.875 342.297 171.642 338.567 175.146C334.836 178.651 329.398 181.841 322.617 184.535C309.06 189.922 290.28 193.271 269.5 193.271C248.72 193.271 229.94 189.922 216.383 184.535C209.602 181.841 204.164 178.651 200.433 175.146C196.703 171.642 194.729 167.875 194.729 164C194.729 160.125 196.703 156.358 200.433 152.854C204.164 149.349 209.602 146.159 216.383 143.465C229.94 138.078 248.72 134.729 269.5 134.729C290.28 134.729 309.06 138.078 322.617 143.465C329.398 146.159 334.836 149.349 338.567 152.854C342.297 156.358 344.271 160.125 344.271 164Z" fill="#310A8A" stroke="#6A46BD" stroke-width="1.4589"/>
<path d="M338 89C338 138.153 298.153 178 249 178C199.847 178 160 138.153 160 89C160 39.8467 199.847 0 249 0C298.153 0 338 39.8467 338 89Z" fill="#DCCCFF"/>
<path d="M338 89C338 138.153 298.153 178 249 178H264.116C313.269 178 353.116 138.153 353.116 89C353.116 39.8467 313.269 0 264.116 0H249C298.153 0 338 39.8467 338 89Z" fill="#844DFF"/>
<path d="M337.47 89C337.47 137.861 297.861 177.47 249 177.47C200.139 177.47 160.53 137.861 160.53 89C160.53 40.1392 200.139 0.529762 249 0.529762C297.861 0.529762 337.47 40.1392 337.47 89ZM264.116 177.47H262.816C305.702 170.827 338.53 133.747 338.53 89C338.53 44.2528 305.702 7.17287 262.816 0.529762H264.116C312.977 0.529762 352.586 40.1392 352.586 89C352.586 137.861 312.977 177.47 264.116 177.47Z" stroke="#6A46BD" stroke-width="1.05952"/>
<rect x="247.587" y="19.7778" width="2.8254" height="18.3651" fill="#D9D9D9"/>
<rect x="282.388" y="28.3457" width="2.8254" height="18.3651" transform="rotate(30 282.388 28.3457)" fill="#D9D9D9"/>
<rect x="308.242" y="53.1663" width="2.8254" height="18.3651" transform="rotate(60 308.242 53.1663)" fill="#D9D9D9"/>
<rect x="318.222" y="87.5884" width="2.8254" height="18.3651" transform="rotate(90 318.222 87.5884)" fill="#D9D9D9"/>
<rect width="2.8254" height="18.3651" transform="matrix(-1 0 0 1 250.412 19.7778)" fill="#D9D9D9"/>
<rect width="2.8254" height="18.3651" transform="matrix(-0.866025 0.5 0.5 0.866025 215.612 28.3457)" fill="#D9D9D9"/>
<rect width="2.8254" height="18.3651" transform="matrix(-0.5 0.866025 0.866025 0.5 189.758 53.1663)" fill="#D9D9D9"/>
<rect width="2.8254" height="18.3651" transform="matrix(3.58107e-09 1 1 -3.58107e-09 179.778 87.5884)" fill="#D9D9D9"/>
<circle cx="247.87" cy="89.2827" r="73.2131" fill="white" stroke="#6A46BD" stroke-width="1.05952"/>
<path d="M246.175 19.7778H249V38.1429H246.175V19.7778Z" fill="#F2F4F7"/>
<path d="M280.975 28.3458L283.422 29.7585L274.239 45.6631L271.792 44.2504L280.975 28.3458Z" fill="#F2F4F7"/>
<path d="M306.829 53.1663L308.242 55.6131L292.337 64.7957L290.924 62.3488L306.829 53.1663Z" fill="#F2F4F7"/>
<path d="M316.809 87.5884V90.4138H298.444V87.5884H316.809Z" fill="#F2F4F7"/>
<path d="M249 19.7778H246.175V38.1429H249V19.7778Z" fill="#F2F4F7"/>
<path d="M214.199 28.3458L211.752 29.7585L220.935 45.6631L223.382 44.2504L214.199 28.3458Z" fill="#F2F4F7"/>
<path d="M188.345 53.1663L186.932 55.6131L202.837 64.7957L204.25 62.3488L188.345 53.1663Z" fill="#F2F4F7"/>
<path d="M178.365 87.5884L178.365 90.4138H196.73V87.5884H178.365Z" fill="#F2F4F7"/>
<path d="M248.999 158.223H246.174V139.858H248.999V158.223Z" fill="#F2F4F7"/>
<path d="M214.199 149.655L211.752 148.243L220.935 132.338L223.382 133.751L214.199 149.655Z" fill="#F2F4F7"/>
<path d="M188.345 124.835L186.932 122.388L202.837 113.205L204.25 115.652L188.345 124.835Z" fill="#F2F4F7"/>
<path d="M178.365 90.4128L178.365 87.5874H196.73V90.4128H178.365Z" fill="#F2F4F7"/>
<path d="M246.174 158.223H248.999V139.858H246.174V158.223Z" fill="#F2F4F7"/>
<path d="M280.975 149.655L283.422 148.243L274.239 132.338L271.792 133.751L280.975 149.655Z" fill="#F2F4F7"/>
<path d="M306.829 124.835L308.242 122.388L292.337 113.205L290.924 115.652L306.829 124.835Z" fill="#F2F4F7"/>
<path d="M316.809 90.4128V87.5874H298.444V90.4128H316.809Z" fill="#F2F4F7"/>
<path d="M272.275 44.1211L281.104 28.8282L282.939 29.8877L274.11 45.1806L272.275 44.1211ZM306.7 53.6487L307.759 55.4839L292.466 64.3132L291.407 62.4781L306.7 53.6487ZM316.456 90.0596H298.797V87.9416H316.456V90.0596ZM246.528 37.7897V20.131H248.647V37.7897H246.528ZM221.064 45.1806L212.235 29.8877L214.07 28.8282L222.899 44.1211L221.064 45.1806ZM187.415 55.4839L188.474 53.6487L203.767 62.4781L202.708 64.3132L187.415 55.4839ZM196.377 90.0596H178.718V87.9416H196.377V90.0596ZM222.899 133.88L214.07 149.173L212.235 148.113L221.064 132.82L222.899 133.88ZM188.474 124.352L187.415 122.517L202.708 113.688L203.767 115.523L188.474 124.352ZM248.646 157.87H246.527V140.211H248.646V157.87ZM281.104 149.173L272.275 133.88L274.11 132.82L282.939 148.113L281.104 149.173ZM307.759 122.517L306.7 124.352L291.407 115.523L292.466 113.688L307.759 122.517Z" stroke="#6A46BD" stroke-opacity="0.13" stroke-width="0.706349"/>
<path d="M243.349 50.8572C243.349 48.5166 245.247 46.6191 247.587 46.6191C249.928 46.6191 251.825 48.5166 251.825 50.8572V89.7064C251.825 92.0471 249.928 93.9445 247.587 93.9445C245.247 93.9445 243.349 92.0471 243.349 89.7064V50.8572Z" fill="#1D2939"/>
<rect x="279.553" y="116.97" width="4.94444" height="59.3333" rx="2.47222" transform="rotate(135 279.553 116.97)" fill="#DC2626"/>
<g clip-path="url(#clip1_1_1141)">
<rect width="165" height="76" transform="matrix(0.951057 -0.309017 0.394102 0.919067 -7 205)" fill="#BEF0EF"/>
<circle cx="25" cy="25" r="25" transform="matrix(0.951057 -0.309017 0.394102 0.919067 116.295 138.761)" fill="#368A88"/>
<circle cx="25" cy="25" r="25" transform="matrix(0.951057 -0.309017 0.394102 0.919067 -40.629 189.749)" fill="#368A88"/>
<circle cx="25" cy="25" r="25" transform="matrix(0.951057 -0.309017 0.394102 0.919067 146.247 208.61)" fill="#368A88"/>
<circle cx="25" cy="25" r="25" transform="matrix(0.951057 -0.309017 0.394102 0.919067 -10.6772 259.598)" fill="#368A88"/>
<circle cx="20" cy="20" r="20" transform="matrix(0.951057 -0.309017 0.394102 0.919067 60.0104 202.075)" fill="#368A88"/>
<path d="M92.177 224.084C91.8523 224.19 91.5794 224.2 91.3583 224.116C91.149 224.005 90.9583 223.911 90.7861 223.832L81.5679 219.154C81.2809 219.024 81.0649 218.871 80.92 218.695C80.7953 218.512 80.6616 218.254 80.5186 217.92L79.9763 216.656C79.8839 216.44 79.8792 216.241 79.9624 216.057C80.0455 215.874 80.1987 215.746 80.4219 215.673L81.7306 215.248C82.9682 214.846 83.8486 214.392 84.3717 213.887C84.9068 213.356 85.1825 212.786 85.199 212.178C85.207 211.55 85.0639 210.892 84.7697 210.206C84.4838 209.54 84.1056 208.981 83.6352 208.531C83.1563 208.061 82.5351 207.771 81.7716 207.662C80.9997 207.533 80.0558 207.65 78.9399 208.012L77.1748 208.586C76.9719 208.652 76.77 208.639 76.5691 208.548C76.3682 208.457 76.2215 208.304 76.1291 208.088L75.5994 206.853C75.5069 206.637 75.5023 206.438 75.5854 206.254C75.6686 206.071 75.8116 205.946 76.0145 205.88L88.7967 201.727C88.9996 201.661 89.2015 201.674 89.4024 201.765C89.6033 201.856 89.7499 202.009 89.8424 202.225L90.3721 203.46C90.4646 203.676 90.4692 203.875 90.3861 204.059C90.3029 204.242 90.1599 204.367 89.957 204.433L84.9962 206.045L85.1931 205.21C86.3708 205.207 87.3332 205.565 88.0802 206.282C88.8475 206.994 89.4455 207.849 89.8743 208.849C90.3788 210.026 90.5547 211.163 90.402 212.263C90.2696 213.356 89.808 214.355 89.0171 215.26C88.238 216.138 87.1492 216.861 85.7507 217.427L84.6877 217.94L84.3119 215.85L95.7833 221.74C96.0499 221.876 96.2085 222.004 96.2589 222.121C96.3346 222.298 96.3326 222.455 96.2529 222.592C96.1732 222.73 96.0319 222.832 95.829 222.898L92.177 224.084ZM79.2178 213.35C78.9946 213.423 78.7826 213.414 78.5817 213.322C78.3808 213.231 78.2341 213.078 78.1417 212.862L77.6424 211.617C77.5499 211.402 77.5453 211.202 77.6285 211.019C77.7116 210.835 77.8547 210.711 78.0575 210.645L90.8397 206.491C91.0426 206.426 91.2445 206.438 91.4454 206.529C91.6463 206.62 91.793 206.774 91.8854 206.989L92.4151 208.225C92.5076 208.44 92.5123 208.64 92.4291 208.823C92.3459 209.007 92.1927 209.135 91.9696 209.207L79.2178 213.35Z" fill="white"/>
</g>
<rect x="1.00887" y="0.457537" width="163.5" height="74.5" transform="matrix(0.951057 -0.309017 0.394102 0.919067 -7.13094 205.349)" stroke="#6A46BD" stroke-width="1.5"/>
<g clip-path="url(#clip2_1_1141)">
<rect width="165" height="76" transform="matrix(0.951057 -0.309017 0.394102 0.919067 101 285.988)" fill="#BEF0EF"/>
<circle cx="25" cy="25" r="25" transform="matrix(0.951057 -0.309017 0.394102 0.919067 224.295 219.749)" fill="#368A88"/>
<circle cx="25" cy="25" r="25" transform="matrix(0.951057 -0.309017 0.394102 0.919067 67.371 270.737)" fill="#368A88"/>
<circle cx="25" cy="25" r="25" transform="matrix(0.951057 -0.309017 0.394102 0.919067 254.247 289.598)" fill="#368A88"/>
<circle cx="25" cy="25" r="25" transform="matrix(0.951057 -0.309017 0.394102 0.919067 97.3228 340.586)" fill="#368A88"/>
<circle cx="20" cy="20" r="20" transform="matrix(0.951057 -0.309017 0.394102 0.919067 168.01 283.063)" fill="#368A88"/>
<path d="M200.177 305.072C199.852 305.177 199.579 305.188 199.358 305.103C199.149 304.993 198.958 304.898 198.786 304.82L189.568 300.142C189.281 300.012 189.065 299.859 188.92 299.682C188.795 299.5 188.662 299.241 188.519 298.908L187.976 297.644C187.884 297.428 187.879 297.228 187.962 297.045C188.046 296.862 188.199 296.734 188.422 296.661L189.731 296.236C190.968 295.834 191.849 295.38 192.372 294.875C192.907 294.344 193.182 293.774 193.199 293.165C193.207 292.537 193.064 291.88 192.77 291.194C192.484 290.527 192.106 289.969 191.635 289.519C191.156 289.049 190.535 288.759 189.772 288.65C189 288.521 188.056 288.638 186.94 289L185.175 289.574C184.972 289.64 184.77 289.627 184.569 289.536C184.368 289.445 184.222 289.291 184.129 289.076L183.599 287.841C183.507 287.625 183.502 287.425 183.585 287.242C183.669 287.059 183.812 286.934 184.015 286.868L196.797 282.715C197 282.649 197.201 282.661 197.402 282.753C197.603 282.844 197.75 282.997 197.842 283.213L198.372 284.448C198.465 284.664 198.469 284.863 198.386 285.047C198.303 285.23 198.16 285.355 197.957 285.421L192.996 287.032L193.193 286.198C194.371 286.195 195.333 286.552 196.08 287.27C196.847 287.981 197.446 288.837 197.874 289.837C198.379 291.013 198.555 292.151 198.402 293.251C198.27 294.344 197.808 295.343 197.017 296.247C196.238 297.126 195.149 297.848 193.751 298.414L192.688 298.927L192.312 296.838L203.783 302.727C204.05 302.864 204.209 302.991 204.259 303.109C204.335 303.285 204.333 303.442 204.253 303.58C204.173 303.718 204.032 303.819 203.829 303.885L200.177 305.072ZM187.218 294.338C186.995 294.411 186.783 294.401 186.582 294.31C186.381 294.219 186.234 294.066 186.142 293.85L185.642 292.605C185.55 292.389 185.545 292.19 185.628 292.006C185.712 291.823 185.855 291.698 186.058 291.632L198.84 287.479C199.043 287.413 199.245 287.426 199.445 287.517C199.646 287.608 199.793 287.762 199.885 287.977L200.415 289.212C200.508 289.428 200.512 289.628 200.429 289.811C200.346 289.994 200.193 290.122 199.97 290.195L187.218 294.338Z" fill="white"/>
</g>
<rect x="1.00887" y="0.457537" width="163.5" height="74.5" transform="matrix(0.951057 -0.309017 0.394102 0.919067 100.869 286.337)" stroke="#6A46BD" stroke-width="1.5"/>
</g>
<defs>
<clipPath id="clip0_1_1141">
<rect width="353" height="348" fill="white"/>
</clipPath>
<clipPath id="clip1_1_1141">
<rect width="165" height="76" transform="matrix(0.951057 -0.309017 0.394102 0.919067 -7 205)" fill="white"/>
</clipPath>
<clipPath id="clip2_1_1141">
<rect width="165" height="76" transform="matrix(0.951057 -0.309017 0.394102 0.919067 101 285.988)" fill="white"/>
</clipPath>
</defs>
</svg>
