<svg width="346" height="284" viewBox="0 0 346 284" fill="none" xmlns="http://www.w3.org/2000/svg">
<path d="M226.736 253.849C226.736 261.779 220.764 269.123 210.74 274.527C200.745 279.915 186.887 283.271 171.541 283.271C156.195 283.271 142.337 279.915 132.342 274.527C122.318 269.123 116.346 261.779 116.346 253.849C116.346 245.92 122.318 238.576 132.342 233.172C142.337 227.783 156.195 224.428 171.541 224.428C186.887 224.428 200.745 227.783 210.74 233.172C220.764 238.576 226.736 245.92 226.736 253.849Z" fill="#310A8A" stroke="#6A46BD" stroke-width="1.4589"/>
<path d="M344.421 253.849C344.421 261.779 338.449 269.123 328.424 274.527C318.43 279.915 304.572 283.271 289.226 283.271C273.879 283.271 260.022 279.915 250.027 274.527C240.003 269.123 234.031 261.779 234.031 253.849C234.031 245.92 240.003 238.576 250.027 233.172C260.022 227.783 273.879 224.428 289.226 224.428C304.572 224.428 318.43 227.783 328.424 233.172C338.449 238.576 344.421 245.92 344.421 253.849Z" fill="#310A8A" stroke="#6A46BD" stroke-width="1.4589"/>
<path d="M112.942 253.849C112.942 261.779 106.969 269.123 96.945 274.527C86.9504 279.915 73.093 283.271 57.7465 283.271C42.4 283.271 28.5426 279.915 18.548 274.527C8.52386 269.123 2.55129 261.779 2.55129 253.849C2.55129 245.92 8.52386 238.576 18.548 233.172C28.5426 227.783 42.4 224.428 57.7465 224.428C73.093 224.428 86.9504 227.783 96.945 233.172C106.969 238.576 112.942 245.92 112.942 253.849Z" fill="#310A8A" stroke="#6A46BD" stroke-width="1.4589"/>
<path d="M106.254 229.928C106.254 236.527 102.394 242.618 95.8752 247.524C92.4759 250.082 88.3538 252.318 83.6794 254.136C78.7967 256.035 73.3116 257.477 67.4182 258.353C63.1546 258.987 58.6772 259.325 54.0599 259.325C49.2312 259.325 44.5557 258.955 40.1175 258.264C33.9469 257.303 28.2351 255.72 23.2083 253.642C18.3041 251.615 14.052 249.116 10.662 246.265C5.10596 241.593 1.86554 235.974 1.86554 229.928C1.86554 213.692 25.2337 200.531 54.0599 200.531C82.886 200.531 106.254 213.692 106.254 229.928Z" fill="#DCCCFF"/>
<path d="M54.0599 271.323C58.6772 271.323 63.1546 270.986 67.4182 270.352C73.3116 269.476 78.7967 268.033 83.6794 266.135C88.3538 264.317 92.4759 262.081 95.8752 259.523C102.394 254.617 106.254 248.526 106.254 241.927V229.928C106.254 236.527 102.394 242.618 95.8752 247.524C92.4759 250.082 88.3538 252.318 83.6794 254.136C78.7967 256.035 73.3116 257.477 67.4182 258.353C63.1546 258.987 58.6772 259.325 54.0599 259.325C49.2312 259.325 44.5557 258.955 40.1175 258.264C33.9469 257.303 28.2351 255.72 23.2083 253.642C18.3041 251.615 14.052 249.116 10.662 246.265C5.10596 241.593 1.86554 235.974 1.86554 229.928V241.927C1.86554 247.972 5.10596 253.592 10.662 258.264C14.052 261.115 18.3041 263.613 23.2083 265.641C28.2351 267.719 33.9469 269.302 40.1175 270.263C44.5557 270.954 49.2312 271.323 54.0599 271.323Z" fill="#844DFF"/>
<path d="M105.354 229.928C105.354 236.147 101.717 242.001 95.3341 246.805C92.011 249.306 87.9639 251.504 83.3532 253.297C78.5382 255.17 73.1186 256.596 67.2859 257.463C63.0666 258.09 58.6336 258.425 54.0599 258.425C49.2768 258.425 44.6476 258.059 40.2559 257.375C34.1491 256.424 28.5069 254.859 23.5521 252.81C18.7166 250.811 14.548 248.358 11.2412 245.577C5.81731 241.015 2.76544 235.627 2.76544 229.928C2.76544 222.279 8.27941 215.172 17.5945 209.925C26.8817 204.695 39.7723 201.431 54.0599 201.431C68.3475 201.431 81.2381 204.695 90.5253 209.925C99.8404 215.172 105.354 222.279 105.354 229.928ZM2.76544 241.927V237.812C4.32235 241.142 6.8341 244.222 10.0828 246.954C13.5561 249.875 17.8917 252.418 22.8645 254.474C27.9632 256.581 33.7446 258.182 39.979 259.153C44.4637 259.852 49.1856 260.225 54.0599 260.225C58.7209 260.225 63.2425 259.884 67.5506 259.243C73.5046 258.358 79.0553 256.9 84.0055 254.975C88.7436 253.132 92.9408 250.859 96.4164 248.243C100.456 245.203 103.548 241.676 105.354 237.812V241.927C105.354 248.146 101.717 253.999 95.3341 258.804C92.011 261.305 87.9639 263.503 83.3532 265.296C78.5382 267.168 73.1186 268.594 67.2859 269.462C63.0666 270.089 58.6336 270.423 54.0599 270.423C49.2768 270.423 44.6476 270.058 40.2559 269.374C34.1491 268.423 28.5069 266.857 23.5521 264.809C18.7166 262.81 14.548 260.356 11.2412 257.575C5.81731 253.014 2.76544 247.626 2.76544 241.927Z" stroke="#6A46BD" stroke-width="1.79981"/>
<path d="M90.956 229.928C90.956 235.251 87.0616 240.259 80.3487 243.989C73.6662 247.701 64.3735 250.025 54.06 250.025C43.7464 250.025 34.4537 247.701 27.7712 243.989C21.0583 240.259 17.1639 235.251 17.1639 229.928C17.1639 224.605 21.0583 219.596 27.7712 215.867C34.4537 212.154 43.7464 209.83 54.06 209.83C64.3735 209.83 73.6662 212.154 80.3487 215.867C87.0616 219.596 90.956 224.605 90.956 229.928Z" fill="#CCB6FC" stroke="#6A46BD" stroke-width="1.79981"/>
<path d="M223.131 229.928C223.131 236.527 219.271 242.618 212.752 247.524C209.353 250.082 205.231 252.318 200.556 254.136C195.674 256.035 190.188 257.477 184.295 258.353C180.031 258.987 175.554 259.325 170.937 259.325C166.108 259.325 161.433 258.955 156.994 258.264C150.824 257.303 145.112 255.72 140.085 253.642C135.181 251.615 130.929 249.116 127.539 246.265C121.983 241.593 118.742 235.974 118.742 229.928C118.742 213.692 142.111 200.531 170.937 200.531C199.763 200.531 223.131 213.692 223.131 229.928Z" fill="#DCCCFF"/>
<path d="M170.937 271.323C175.554 271.323 180.031 270.986 184.295 270.352C190.188 269.476 195.674 268.033 200.556 266.135C205.231 264.317 209.353 262.081 212.752 259.523C219.271 254.617 223.131 248.526 223.131 241.927V229.928C223.131 236.527 219.271 242.618 212.752 247.524C209.353 250.082 205.231 252.318 200.556 254.136C195.674 256.035 190.188 257.477 184.295 258.353C180.031 258.987 175.554 259.325 170.937 259.325C166.108 259.325 161.433 258.955 156.994 258.264C150.824 257.303 145.112 255.72 140.085 253.642C135.181 251.615 130.929 249.116 127.539 246.265C121.983 241.593 118.742 235.974 118.742 229.928V241.927C118.742 247.972 121.983 253.592 127.539 258.264C130.929 261.115 135.181 263.613 140.085 265.641C145.112 267.719 150.824 269.302 156.994 270.263C161.433 270.954 166.108 271.323 170.937 271.323Z" fill="#844DFF"/>
<path d="M222.231 229.928C222.231 236.147 218.594 242.001 212.211 246.805C208.888 249.306 204.841 251.504 200.23 253.297C195.415 255.17 189.995 256.596 184.163 257.463C179.944 258.09 175.51 258.425 170.937 258.425C166.154 258.425 161.525 258.059 157.133 257.375C151.026 256.424 145.384 254.859 140.429 252.81C135.594 250.811 131.425 248.358 128.118 245.577C122.694 241.015 119.642 235.627 119.642 229.928C119.642 222.279 125.156 215.172 134.471 209.925C143.759 204.695 156.649 201.431 170.937 201.431C185.224 201.431 198.115 204.695 207.402 209.925C216.717 215.172 222.231 222.279 222.231 229.928ZM119.642 241.927V237.812C121.199 241.142 123.711 244.222 126.96 246.954C130.433 249.875 134.769 252.418 139.741 254.474C144.84 256.581 150.622 258.182 156.856 259.153C161.341 259.852 166.062 260.225 170.937 260.225C175.598 260.225 180.119 259.884 184.427 259.243C190.381 258.358 195.932 256.9 200.882 254.975C205.62 253.132 209.818 250.859 213.293 248.243C217.333 245.203 220.425 241.676 222.231 237.812V241.927C222.231 248.146 218.594 253.999 212.211 258.804C208.888 261.305 204.841 263.503 200.23 265.296C195.415 267.168 189.995 268.594 184.163 269.462C179.944 270.089 175.51 270.423 170.937 270.423C166.154 270.423 161.525 270.058 157.133 269.374C151.026 268.423 145.384 266.857 140.429 264.809C135.594 262.81 131.425 260.356 128.118 257.575C122.694 253.014 119.642 247.626 119.642 241.927Z" stroke="#6A46BD" stroke-width="1.79981"/>
<path d="M207.833 229.928C207.833 235.251 203.939 240.259 197.226 243.989C190.543 247.701 181.251 250.025 170.937 250.025C160.623 250.025 151.331 247.701 144.648 243.989C137.935 240.259 134.041 235.251 134.041 229.928C134.041 224.605 137.935 219.596 144.648 215.867C151.331 212.154 160.623 209.83 170.937 209.83C181.251 209.83 190.543 212.154 197.226 215.867C203.939 219.596 207.833 224.605 207.833 229.928Z" fill="#CCB6FC" stroke="#6A46BD" stroke-width="1.79981"/>
<path d="M341.024 229.928C341.024 236.527 337.164 242.618 330.645 247.524C327.246 250.082 323.124 252.318 318.449 254.136C313.567 256.035 308.082 257.477 302.188 258.353C297.925 258.987 293.447 259.325 288.83 259.325C284.001 259.325 279.326 258.955 274.888 258.264C268.717 257.303 263.005 255.72 257.978 253.642C253.074 251.615 248.822 249.116 245.432 246.265C239.876 241.593 236.636 235.974 236.636 229.928C236.636 213.692 260.004 200.531 288.83 200.531C317.656 200.531 341.024 213.692 341.024 229.928Z" fill="#DCCCFF"/>
<path d="M288.83 271.323C293.447 271.323 297.925 270.986 302.188 270.352C308.082 269.476 313.567 268.033 318.449 266.135C323.124 264.317 327.246 262.081 330.645 259.523C337.164 254.617 341.024 248.526 341.024 241.927V229.928C341.024 236.527 337.164 242.618 330.645 247.524C327.246 250.082 323.124 252.318 318.449 254.136C313.567 256.035 308.082 257.477 302.188 258.353C297.925 258.987 293.447 259.325 288.83 259.325C284.001 259.325 279.326 258.955 274.888 258.264C268.717 257.303 263.005 255.72 257.978 253.642C253.074 251.615 248.822 249.116 245.432 246.265C239.876 241.593 236.636 235.974 236.636 229.928V241.927C236.636 247.972 239.876 253.592 245.432 258.264C248.822 261.115 253.074 263.613 257.978 265.641C263.005 267.719 268.717 269.302 274.888 270.263C279.326 270.954 284.001 271.323 288.83 271.323Z" fill="#844DFF"/>
<path d="M340.124 229.928C340.124 236.147 336.487 242.001 330.104 246.805C326.781 249.306 322.734 251.504 318.123 253.297C313.308 255.17 307.889 256.596 302.056 257.463C297.837 258.09 293.404 258.425 288.83 258.425C284.047 258.425 279.418 258.059 275.026 257.375C268.919 256.424 263.277 254.859 258.322 252.81C253.487 250.811 249.318 248.358 246.011 245.577C240.587 241.015 237.536 235.627 237.536 229.928C237.536 222.279 243.049 215.172 252.365 209.925C261.652 204.695 274.542 201.431 288.83 201.431C303.118 201.431 316.008 204.695 325.295 209.925C334.61 215.172 340.124 222.279 340.124 229.928ZM237.536 241.927V237.812C239.092 241.142 241.604 244.222 244.853 246.954C248.326 249.875 252.662 252.418 257.635 254.474C262.733 256.581 268.515 258.182 274.749 259.153C279.234 259.852 283.956 260.225 288.83 260.225C293.491 260.225 298.013 259.884 302.321 259.243C308.275 258.358 313.825 256.9 318.776 254.975C323.514 253.132 327.711 250.859 331.186 248.243C335.226 245.203 338.318 241.676 340.124 237.812V241.927C340.124 248.146 336.487 253.999 330.104 258.804C326.781 261.305 322.734 263.503 318.123 265.296C313.308 267.168 307.889 268.594 302.056 269.462C297.837 270.089 293.404 270.423 288.83 270.423C284.047 270.423 279.418 270.058 275.026 269.374C268.919 268.423 263.277 266.857 258.322 264.809C253.487 262.81 249.318 260.356 246.011 257.575C240.587 253.014 237.536 247.626 237.536 241.927Z" stroke="#6A46BD" stroke-width="1.79981"/>
<path d="M325.726 229.928C325.726 235.251 321.832 240.259 315.119 243.989C308.436 247.701 299.144 250.025 288.83 250.025C278.517 250.025 269.224 247.701 262.541 243.989C255.828 240.259 251.934 235.251 251.934 229.928C251.934 224.605 255.828 219.596 262.541 215.867C269.224 212.154 278.517 209.83 288.83 209.83C299.144 209.83 308.436 212.154 315.119 215.867C321.832 219.596 325.726 224.605 325.726 229.928Z" fill="#CCB6FC" stroke="#6A46BD" stroke-width="1.79981"/>
<path d="M107.271 209.952C107.271 216.551 103.41 222.642 96.8915 227.548C93.4922 230.106 89.37 232.342 84.6957 234.16C79.813 236.059 74.3279 237.501 68.4345 238.377C64.1709 239.011 59.6935 239.349 55.0762 239.349C50.2475 239.349 45.572 238.979 41.1338 238.288C34.9632 237.327 29.2514 235.744 24.2246 233.666C19.3204 231.639 15.0683 229.14 11.6783 226.289C6.12226 221.617 2.88184 215.998 2.88184 209.952C2.88184 193.716 26.25 180.555 55.0762 180.555C83.9023 180.555 107.271 193.716 107.271 209.952Z" fill="#DCCCFF"/>
<path d="M55.0762 251.347C59.6935 251.347 64.1709 251.01 68.4345 250.376C74.3279 249.499 79.813 248.057 84.6957 246.159C89.37 244.341 93.4922 242.105 96.8915 239.546C103.41 234.641 107.271 228.549 107.271 221.95V209.952C107.271 216.551 103.41 222.642 96.8915 227.548C93.4922 230.106 89.37 232.342 84.6957 234.16C79.813 236.059 74.3279 237.501 68.4345 238.377C64.1709 239.011 59.6935 239.349 55.0762 239.349C50.2475 239.349 45.572 238.979 41.1338 238.288C34.9632 237.327 29.2514 235.744 24.2246 233.666C19.3204 231.639 15.0683 229.14 11.6783 226.289C6.12226 221.617 2.88184 215.998 2.88184 209.952V221.95C2.88184 227.996 6.12226 233.616 11.6783 238.288C15.0683 241.139 19.3204 243.637 24.2246 245.665C29.2514 247.743 34.9632 249.326 41.1338 250.287C45.572 250.978 50.2475 251.347 55.0762 251.347Z" fill="#844DFF"/>
<path d="M106.371 209.952C106.371 216.171 102.734 222.025 96.3504 226.829C93.0273 229.33 88.9802 231.528 84.3695 233.321C79.5545 235.194 74.1349 236.62 68.3022 237.487C64.0829 238.114 59.6499 238.449 55.0762 238.449C50.2931 238.449 45.6639 238.083 41.2722 237.399C35.1654 236.448 29.5232 234.882 24.5684 232.834C19.7329 230.835 15.5643 228.382 12.2575 225.601C6.83361 221.039 3.78174 215.651 3.78174 209.952C3.78174 202.303 9.2957 195.196 18.6108 189.949C27.898 184.718 40.7886 181.455 55.0762 181.455C69.3638 181.455 82.2544 184.718 91.5416 189.949C100.857 195.196 106.371 202.303 106.371 209.952ZM3.78174 221.95V217.836C5.33864 221.166 7.85039 224.246 11.0991 226.978C14.5724 229.899 18.908 232.442 23.8808 234.497C28.9795 236.605 34.7609 238.206 40.9953 239.177C45.48 239.876 50.2019 240.248 55.0762 240.248C59.7372 240.248 64.2588 239.908 68.5669 239.267C74.5209 238.382 80.0716 236.924 85.0218 234.999C89.7599 233.156 93.9571 230.883 97.4326 228.267C101.472 225.227 104.564 221.7 106.371 217.836V221.95C106.371 228.17 102.734 234.023 96.3504 238.827C93.0273 241.328 88.9802 243.527 84.3695 245.32C79.5545 247.192 74.1349 248.618 68.3022 249.486C64.0829 250.113 59.6499 250.447 55.0762 250.447C50.2931 250.447 45.6639 250.082 41.2722 249.398C35.1654 248.447 29.5232 246.881 24.5684 244.833C19.7329 242.834 15.5643 240.38 12.2575 237.599C6.83361 233.038 3.78174 227.65 3.78174 221.95Z" stroke="#6A46BD" stroke-width="1.79981"/>
<path d="M91.9722 209.951C91.9722 215.274 88.0779 220.283 81.3649 224.012C74.6825 227.725 65.3898 230.049 55.0762 230.049C44.7626 230.049 35.4699 227.725 28.7875 224.012C22.0745 220.283 18.1802 215.274 18.1802 209.951C18.1802 204.628 22.0745 199.62 28.7875 195.89C35.4699 192.178 44.7626 189.854 55.0762 189.854C65.3898 189.854 74.6825 192.178 81.3649 195.89C88.0779 199.62 91.9722 204.628 91.9722 209.951Z" fill="#CCB6FC" stroke="#6A46BD" stroke-width="1.79981"/>
<path d="M224.147 209.952C224.147 216.551 220.287 222.642 213.768 227.548C210.369 230.106 206.247 232.342 201.573 234.16C196.69 236.059 191.205 237.501 185.311 238.377C181.048 239.011 176.57 239.349 171.953 239.349C167.124 239.349 162.449 238.979 158.011 238.288C151.84 237.327 146.128 235.744 141.102 233.666C136.197 231.639 131.945 229.14 128.555 226.289C122.999 221.617 119.759 215.998 119.759 209.952C119.759 193.716 143.127 180.555 171.953 180.555C200.779 180.555 224.147 193.716 224.147 209.952Z" fill="#DCCCFF"/>
<path d="M171.953 251.347C176.57 251.347 181.048 251.01 185.311 250.376C191.205 249.499 196.69 248.057 201.573 246.159C206.247 244.341 210.369 242.105 213.768 239.546C220.287 234.641 224.147 228.549 224.147 221.95V209.952C224.147 216.551 220.287 222.642 213.768 227.548C210.369 230.106 206.247 232.342 201.573 234.16C196.69 236.059 191.205 237.501 185.311 238.377C181.048 239.011 176.57 239.349 171.953 239.349C167.124 239.349 162.449 238.979 158.011 238.288C151.84 237.327 146.128 235.744 141.102 233.666C136.197 231.639 131.945 229.14 128.555 226.289C122.999 221.617 119.759 215.998 119.759 209.952V221.95C119.759 227.996 122.999 233.616 128.555 238.288C131.945 241.139 136.197 243.637 141.102 245.665C146.128 247.743 151.84 249.326 158.011 250.287C162.449 250.978 167.124 251.347 171.953 251.347Z" fill="#844DFF"/>
<path d="M223.248 209.952C223.248 216.171 219.61 222.025 213.227 226.829C209.904 229.33 205.857 231.528 201.246 233.321C196.431 235.194 191.012 236.62 185.179 237.487C180.96 238.114 176.527 238.449 171.953 238.449C167.17 238.449 162.541 238.083 158.149 237.399C152.042 236.448 146.4 234.882 141.445 232.834C136.61 230.835 132.441 228.382 129.134 225.601C123.711 221.039 120.659 215.651 120.659 209.952C120.659 202.303 126.173 195.196 135.488 189.949C144.775 184.718 157.666 181.455 171.953 181.455C186.241 181.455 199.131 184.718 208.419 189.949C217.734 195.196 223.248 202.303 223.248 209.952ZM120.659 221.95V217.836C122.216 221.166 124.727 224.246 127.976 226.978C131.449 229.899 135.785 232.442 140.758 234.497C145.856 236.605 151.638 238.206 157.872 239.177C162.357 239.876 167.079 240.248 171.953 240.248C176.614 240.248 181.136 239.908 185.444 239.267C191.398 238.382 196.949 236.924 201.899 234.999C206.637 233.156 210.834 230.883 214.31 228.267C218.349 225.227 221.441 221.7 223.248 217.836V221.95C223.248 228.17 219.61 234.023 213.227 238.827C209.904 241.328 205.857 243.527 201.246 245.32C196.431 247.192 191.012 248.618 185.179 249.486C180.96 250.113 176.527 250.447 171.953 250.447C167.17 250.447 162.541 250.082 158.149 249.398C152.042 248.447 146.4 246.881 141.445 244.833C136.61 242.834 132.441 240.38 129.134 237.599C123.711 233.038 120.659 227.65 120.659 221.95Z" stroke="#6A46BD" stroke-width="1.79981"/>
<path d="M208.849 209.951C208.849 215.274 204.955 220.283 198.242 224.012C191.56 227.725 182.267 230.049 171.953 230.049C161.64 230.049 152.347 227.725 145.665 224.012C138.952 220.283 135.057 215.274 135.057 209.951C135.057 204.628 138.952 199.62 145.665 195.89C152.347 192.178 161.64 189.854 171.953 189.854C182.267 189.854 191.56 192.178 198.242 195.89C204.955 199.62 208.849 204.628 208.849 209.951Z" fill="#CCB6FC" stroke="#6A46BD" stroke-width="1.79981"/>
<path d="M342.041 209.952C342.041 216.551 338.18 222.642 331.662 227.548C328.262 230.106 324.14 232.342 319.466 234.16C314.583 236.059 309.098 237.501 303.205 238.377C298.941 239.011 294.464 239.349 289.846 239.349C285.018 239.349 280.342 238.979 275.904 238.288C269.733 237.327 264.021 235.744 258.995 233.666C254.09 231.639 249.838 229.14 246.448 226.289C240.892 221.617 237.652 215.998 237.652 209.952C237.652 193.716 261.02 180.555 289.846 180.555C318.672 180.555 342.041 193.716 342.041 209.952Z" fill="#DCCCFF"/>
<path d="M289.846 251.347C294.464 251.347 298.941 251.01 303.205 250.376C309.098 249.499 314.583 248.057 319.466 246.159C324.14 244.341 328.262 242.105 331.662 239.546C338.18 234.641 342.041 228.549 342.041 221.95V209.952C342.041 216.551 338.18 222.642 331.662 227.548C328.262 230.106 324.14 232.342 319.466 234.16C314.583 236.059 309.098 237.501 303.205 238.377C298.941 239.011 294.464 239.349 289.846 239.349C285.018 239.349 280.342 238.979 275.904 238.288C269.733 237.327 264.021 235.744 258.995 233.666C254.09 231.639 249.838 229.14 246.448 226.289C240.892 221.617 237.652 215.998 237.652 209.952V221.95C237.652 227.996 240.892 233.616 246.448 238.288C249.838 241.139 254.09 243.637 258.995 245.665C264.021 247.743 269.733 249.326 275.904 250.287C280.342 250.978 285.018 251.347 289.846 251.347Z" fill="#844DFF"/>
<path d="M341.141 209.952C341.141 216.171 337.504 222.025 331.12 226.829C327.797 229.33 323.75 231.528 319.14 233.321C314.325 235.194 308.905 236.62 303.072 237.487C298.853 238.114 294.42 238.449 289.846 238.449C285.063 238.449 280.434 238.083 276.042 237.399C269.935 236.448 264.293 234.882 259.338 232.834C254.503 230.835 250.334 228.382 247.027 225.601C241.604 221.039 238.552 215.651 238.552 209.952C238.552 202.303 244.066 195.196 253.381 189.949C262.668 184.718 275.559 181.455 289.846 181.455C304.134 181.455 317.024 184.718 326.312 189.949C335.627 195.196 341.141 202.303 341.141 209.952ZM238.552 221.95V217.836C240.109 221.166 242.62 224.246 245.869 226.978C249.342 229.899 253.678 232.442 258.651 234.497C263.75 236.605 269.531 238.206 275.765 239.177C280.25 239.876 284.972 240.248 289.846 240.248C294.507 240.248 299.029 239.908 303.337 239.267C309.291 238.382 314.842 236.924 319.792 234.999C324.53 233.156 328.727 230.883 332.203 228.267C336.242 225.227 339.334 221.7 341.141 217.836V221.95C341.141 228.17 337.504 234.023 331.12 238.827C327.797 241.328 323.75 243.527 319.14 245.32C314.325 247.192 308.905 248.618 303.072 249.486C298.853 250.113 294.42 250.447 289.846 250.447C285.063 250.447 280.434 250.082 276.042 249.398C269.935 248.447 264.293 246.881 259.338 244.833C254.503 242.834 250.334 240.38 247.027 237.599C241.604 233.038 238.552 227.65 238.552 221.95Z" stroke="#6A46BD" stroke-width="1.79981"/>
<path d="M326.742 209.951C326.742 215.274 322.848 220.283 316.135 224.012C309.453 227.725 300.16 230.049 289.846 230.049C279.533 230.049 270.24 227.725 263.558 224.012C256.845 220.283 252.95 215.274 252.95 209.951C252.95 204.628 256.845 199.62 263.558 195.89C270.24 192.178 279.533 189.854 289.846 189.854C300.16 189.854 309.453 192.178 316.135 195.89C322.848 199.62 326.742 204.628 326.742 209.951Z" fill="#CCB6FC" stroke="#6A46BD" stroke-width="1.79981"/>
<path d="M105.238 189.975C105.238 196.574 101.377 202.666 94.8589 207.571C91.4596 210.13 87.3375 212.366 82.6631 214.184C77.7804 216.082 72.2953 217.524 66.4019 218.401C62.1383 219.035 57.6609 219.372 53.0436 219.372C48.2149 219.372 43.5394 219.003 39.1012 218.312C32.9306 217.351 27.2188 215.768 22.192 213.69C17.2878 211.662 13.0357 209.164 9.64566 206.313C4.08966 201.641 0.849243 196.021 0.849243 189.975C0.849243 173.74 24.2175 160.579 53.0436 160.579C81.8697 160.579 105.238 173.74 105.238 189.975Z" fill="#DCCCFF"/>
<path d="M53.0436 231.371C57.6609 231.371 62.1383 231.033 66.4019 230.399C72.2953 229.523 77.7804 228.081 82.6631 226.182C87.3375 224.365 91.4596 222.129 94.8589 219.57C101.377 214.664 105.238 208.573 105.238 201.974V189.975C105.238 196.574 101.377 202.666 94.8589 207.571C91.4596 210.13 87.3375 212.366 82.6631 214.184C77.7804 216.082 72.2953 217.524 66.4019 218.401C62.1383 219.035 57.6609 219.372 53.0436 219.372C48.2149 219.372 43.5394 219.003 39.1012 218.312C32.9306 217.351 27.2188 215.768 22.192 213.69C17.2878 211.662 13.0357 209.164 9.64566 206.313C4.08966 201.641 0.849243 196.021 0.849243 189.975V201.974C0.849243 208.02 4.08966 213.639 9.64566 218.312C13.0357 221.163 17.2878 223.661 22.192 225.688C27.2188 227.766 32.9306 229.349 39.1012 230.31C43.5394 231.002 48.2149 231.371 53.0436 231.371Z" fill="#844DFF"/>
<path d="M104.338 189.975C104.338 196.195 100.701 202.048 94.3178 206.852C90.9947 209.353 86.9476 211.552 82.3369 213.345C77.5219 215.217 72.1023 216.643 66.2696 217.511C62.0504 218.138 57.6173 218.472 53.0436 218.472C48.2605 218.472 43.6313 218.107 39.2396 217.423C33.1328 216.472 27.4906 214.906 22.5358 212.858C17.7003 210.859 13.5317 208.405 10.2249 205.624C4.80102 201.063 1.74915 195.675 1.74915 189.975C1.74915 182.327 7.26311 175.219 16.5782 169.973C25.8654 164.742 38.756 161.479 53.0436 161.479C67.3312 161.479 80.2218 164.742 89.509 169.973C98.8241 175.219 104.338 182.327 104.338 189.975ZM1.74915 201.974V197.859C3.30605 201.19 5.8178 204.27 9.06647 207.002C12.5398 209.923 16.8754 212.465 21.8482 214.521C26.9469 216.629 32.7284 218.23 38.9627 219.201C43.4474 219.899 48.1693 220.272 53.0436 220.272C57.7046 220.272 62.2262 219.931 66.5343 219.291C72.4883 218.406 78.039 216.947 82.9892 215.022C87.7273 213.18 91.9245 210.906 95.4001 208.29C99.4394 205.25 102.532 201.724 104.338 197.86V201.974C104.338 208.194 100.701 214.047 94.3178 218.851C90.9947 221.352 86.9476 223.551 82.3369 225.344C77.5219 227.216 72.1023 228.642 66.2696 229.509C62.0504 230.137 57.6173 230.471 53.0436 230.471C48.2605 230.471 43.6313 230.105 39.2396 229.421C33.1328 228.47 27.4906 226.905 22.5358 224.857C17.7003 222.858 13.5317 220.404 10.2249 217.623C4.80102 213.062 1.74915 207.674 1.74915 201.974Z" stroke="#6A46BD" stroke-width="1.79981"/>
<path d="M89.9396 189.975C89.9396 195.298 86.0453 200.307 79.3323 204.036C72.6499 207.749 63.3572 210.073 53.0436 210.073C42.73 210.073 33.4373 207.749 26.7549 204.036C20.0419 200.307 16.1476 195.298 16.1476 189.975C16.1476 184.652 20.0419 179.644 26.7549 175.914C33.4373 172.202 42.73 169.877 53.0436 169.877C63.3572 169.877 72.6499 172.202 79.3323 175.914C86.0453 179.644 89.9396 184.652 89.9396 189.975Z" fill="#CCB6FC" stroke="#6A46BD" stroke-width="1.79981"/>
<g filter="url(#filter0_i_1_978)">
<path d="M68.6854 202.04C68.1636 202.18 67.6887 202.201 67.2607 202.104C66.8414 201.974 66.4623 201.864 66.1234 201.773L47.748 196.299C47.1832 196.147 46.7325 195.965 46.3959 195.753C46.0919 195.532 45.737 195.218 45.3312 194.812L43.7914 193.272C43.5287 193.01 43.428 192.764 43.4892 192.536C43.5504 192.308 43.7603 192.146 44.119 192.049L46.2225 191.486C48.2118 190.953 49.5492 190.367 50.2347 189.73C50.9289 189.059 51.1494 188.349 50.8961 187.6C50.619 186.827 50.0627 186.022 49.2271 185.187C48.4154 184.375 47.4916 183.699 46.4557 183.16C45.3959 182.596 44.1695 182.259 42.7766 182.147C41.3598 182.013 39.7545 182.185 37.9609 182.666L35.1237 183.426C34.7975 183.514 34.4368 183.504 34.0414 183.398C33.646 183.292 33.317 183.108 33.0544 182.846L31.5504 181.341C31.2877 181.079 31.187 180.833 31.2482 180.605C31.3094 180.377 31.503 180.219 31.8291 180.132L52.3745 174.627C52.7006 174.539 53.0614 174.548 53.4568 174.654C53.8522 174.76 54.1812 174.945 54.4438 175.207L55.9478 176.711C56.2104 176.974 56.3112 177.219 56.25 177.448C56.1888 177.676 55.9952 177.834 55.6691 177.921L47.6955 180.058L47.6545 179.024C49.7236 178.984 51.5812 179.395 53.2274 180.255C54.9062 181.107 56.3543 182.142 57.5719 183.359C59.0043 184.792 59.8413 186.187 60.0828 187.545C60.3569 188.894 60.0086 190.138 59.0377 191.276C58.0756 192.381 56.4965 193.304 54.3004 194.044L52.6695 194.708L51.0398 192.147L73.9381 199.043C74.4703 199.203 74.8081 199.355 74.9513 199.498C75.1662 199.713 75.2354 199.906 75.1591 200.078C75.0828 200.25 74.8816 200.38 74.5555 200.467L68.6854 202.04ZM40.9249 189.227C40.5662 189.324 40.1891 189.319 39.7937 189.213C39.3983 189.107 39.0693 188.922 38.8067 188.66L37.3516 187.143C37.089 186.88 36.9883 186.635 37.0494 186.406C37.1106 186.178 37.3043 186.02 37.6304 185.933L58.1758 180.428C58.5019 180.34 58.8626 180.35 59.258 180.456C59.6534 180.562 59.9824 180.746 60.245 181.008L61.7491 182.512C62.0117 182.775 62.1124 183.021 62.0512 183.249C61.9901 183.477 61.7801 183.639 61.4214 183.735L40.9249 189.227Z" fill="#844DFF"/>
</g>
<path d="M222.115 189.975C222.115 196.574 218.254 202.666 211.736 207.571C208.336 210.13 204.214 212.366 199.54 214.184C194.657 216.082 189.172 217.524 183.279 218.401C179.015 219.035 174.538 219.372 169.92 219.372C165.092 219.372 160.416 219.003 155.978 218.312C149.807 217.351 144.096 215.768 139.069 213.69C134.165 211.662 129.913 209.164 126.522 206.313C120.966 201.641 117.726 196.021 117.726 189.975C117.726 173.74 141.094 160.579 169.92 160.579C198.747 160.579 222.115 173.74 222.115 189.975Z" fill="#DCCCFF"/>
<path d="M169.92 231.371C174.538 231.371 179.015 231.033 183.279 230.399C189.172 229.523 194.657 228.081 199.54 226.182C204.214 224.365 208.336 222.129 211.736 219.57C218.254 214.664 222.115 208.573 222.115 201.974V189.975C222.115 196.574 218.254 202.666 211.736 207.571C208.336 210.13 204.214 212.366 199.54 214.184C194.657 216.082 189.172 217.524 183.279 218.401C179.015 219.035 174.538 219.372 169.92 219.372C165.092 219.372 160.416 219.003 155.978 218.312C149.807 217.351 144.096 215.768 139.069 213.69C134.165 211.662 129.913 209.164 126.522 206.313C120.966 201.641 117.726 196.021 117.726 189.975V201.974C117.726 208.02 120.966 213.639 126.522 218.312C129.913 221.163 134.165 223.661 139.069 225.688C144.096 227.766 149.807 229.349 155.978 230.31C160.416 231.002 165.092 231.371 169.92 231.371Z" fill="#844DFF"/>
<path d="M221.215 189.975C221.215 196.195 217.578 202.048 211.195 206.852C207.871 209.353 203.824 211.552 199.214 213.345C194.399 215.217 188.979 216.643 183.146 217.511C178.927 218.138 174.494 218.472 169.92 218.472C165.137 218.472 160.508 218.107 156.116 217.423C150.01 216.472 144.367 214.906 139.413 212.858C134.577 210.859 130.408 208.405 127.102 205.624C121.678 201.063 118.626 195.675 118.626 189.975C118.626 182.327 124.14 175.219 133.455 169.973C142.742 164.742 155.633 161.479 169.92 161.479C184.208 161.479 197.099 164.742 206.386 169.973C215.701 175.219 221.215 182.327 221.215 189.975ZM118.626 201.974V197.859C120.183 201.19 122.695 204.27 125.943 207.002C129.417 209.923 133.752 212.465 138.725 214.521C143.824 216.629 149.605 218.23 155.84 219.201C160.324 219.899 165.046 220.272 169.92 220.272C174.581 220.272 179.103 219.931 183.411 219.291C189.365 218.406 194.916 216.947 199.866 215.022C204.604 213.18 208.801 210.906 212.277 208.29C216.316 205.25 219.408 201.724 221.215 197.86V201.974C221.215 208.194 217.578 214.047 211.195 218.851C207.871 221.352 203.824 223.551 199.214 225.344C194.399 227.216 188.979 228.642 183.146 229.509C178.927 230.137 174.494 230.471 169.92 230.471C165.137 230.471 160.508 230.105 156.116 229.421C150.01 228.47 144.367 226.905 139.413 224.857C134.577 222.858 130.408 220.404 127.102 217.623C121.678 213.062 118.626 207.674 118.626 201.974Z" stroke="#6A46BD" stroke-width="1.79981"/>
<path d="M206.817 189.975C206.817 195.298 202.922 200.307 196.209 204.036C189.527 207.749 180.234 210.073 169.921 210.073C159.607 210.073 150.314 207.749 143.632 204.036C136.919 200.307 133.025 195.298 133.025 189.975C133.025 184.652 136.919 179.644 143.632 175.914C150.314 172.202 159.607 169.877 169.921 169.877C180.234 169.877 189.527 172.202 196.209 175.914C202.922 179.644 206.817 184.652 206.817 189.975Z" fill="#CCB6FC" stroke="#6A46BD" stroke-width="1.79981"/>
<path d="M340.008 189.975C340.008 196.574 336.147 202.666 329.629 207.571C326.23 210.13 322.107 212.366 317.433 214.184C312.55 216.082 307.065 217.524 301.172 218.401C296.908 219.035 292.431 219.372 287.814 219.372C282.985 219.372 278.309 219.003 273.871 218.312C267.701 217.351 261.989 215.768 256.962 213.69C252.058 211.662 247.806 209.164 244.416 206.313C238.86 201.641 235.619 196.021 235.619 189.975C235.619 173.74 258.987 160.579 287.814 160.579C316.64 160.579 340.008 173.74 340.008 189.975Z" fill="#DCCCFF"/>
<path d="M287.814 231.371C292.431 231.371 296.908 231.033 301.172 230.399C307.065 229.523 312.55 228.081 317.433 226.182C322.107 224.365 326.23 222.129 329.629 219.57C336.147 214.664 340.008 208.573 340.008 201.974V189.975C340.008 196.574 336.147 202.666 329.629 207.571C326.23 210.13 322.107 212.366 317.433 214.184C312.55 216.082 307.065 217.524 301.172 218.401C296.908 219.035 292.431 219.372 287.814 219.372C282.985 219.372 278.309 219.003 273.871 218.312C267.701 217.351 261.989 215.768 256.962 213.69C252.058 211.662 247.806 209.164 244.416 206.313C238.86 201.641 235.619 196.021 235.619 189.975V201.974C235.619 208.02 238.86 213.639 244.416 218.312C247.806 221.163 252.058 223.661 256.962 225.688C261.989 227.766 267.701 229.349 273.871 230.31C278.309 231.002 282.985 231.371 287.814 231.371Z" fill="#844DFF"/>
<path d="M339.108 189.975C339.108 196.195 335.471 202.048 329.088 206.852C325.765 209.353 321.718 211.552 317.107 213.345C312.292 215.217 306.872 216.643 301.04 217.511C296.82 218.138 292.387 218.472 287.814 218.472C283.031 218.472 278.401 218.107 274.01 217.423C267.903 216.472 262.261 214.906 257.306 212.858C252.47 210.859 248.302 208.405 244.995 205.624C239.571 201.063 236.519 195.675 236.519 189.975C236.519 182.327 242.033 175.219 251.348 169.973C260.635 164.742 273.526 161.479 287.814 161.479C302.101 161.479 314.992 164.742 324.279 169.973C333.594 175.219 339.108 182.327 339.108 189.975ZM236.519 201.974V197.859C238.076 201.19 240.588 204.27 243.836 207.002C247.31 209.923 251.645 212.465 256.618 214.521C261.717 216.629 267.498 218.23 273.733 219.201C278.217 219.899 282.939 220.272 287.814 220.272C292.475 220.272 296.996 219.931 301.304 219.291C307.258 218.406 312.809 216.947 317.759 215.022C322.497 213.18 326.695 210.906 330.17 208.29C334.209 205.25 337.302 201.724 339.108 197.86V201.974C339.108 208.194 335.471 214.047 329.088 218.851C325.765 221.352 321.718 223.551 317.107 225.344C312.292 227.216 306.872 228.642 301.04 229.509C296.82 230.137 292.387 230.471 287.814 230.471C283.031 230.471 278.401 230.105 274.01 229.421C267.903 228.47 262.261 226.905 257.306 224.857C252.47 222.858 248.302 220.404 244.995 217.623C239.571 213.062 236.519 207.674 236.519 201.974Z" stroke="#6A46BD" stroke-width="1.79981"/>
<path d="M324.71 189.975C324.71 195.298 320.815 200.307 314.102 204.036C307.42 207.749 298.127 210.073 287.814 210.073C277.5 210.073 268.207 207.749 261.525 204.036C254.812 200.307 250.918 195.298 250.918 189.975C250.918 184.652 254.812 179.644 261.525 175.914C268.207 172.202 277.5 169.877 287.814 169.877C298.127 169.877 307.42 172.202 314.102 175.914C320.815 179.644 324.71 184.652 324.71 189.975Z" fill="#CCB6FC" stroke="#6A46BD" stroke-width="1.79981"/>
<path d="M223.131 169.965C223.131 176.564 219.271 182.655 212.752 187.561C209.353 190.119 205.231 192.355 200.556 194.173C195.674 196.072 190.188 197.514 184.295 198.39C180.031 199.024 175.554 199.362 170.937 199.362C166.108 199.362 161.433 198.992 156.994 198.301C150.824 197.34 145.112 195.757 140.085 193.679C135.181 191.651 130.929 189.153 127.539 186.302C121.983 181.63 118.742 176.01 118.742 169.965C118.742 153.729 142.111 140.568 170.937 140.568C199.763 140.568 223.131 153.729 223.131 169.965Z" fill="#DCCCFF"/>
<path d="M170.937 211.36C175.554 211.36 180.031 211.023 184.295 210.389C190.188 209.512 195.674 208.07 200.556 206.172C205.231 204.354 209.353 202.118 212.752 199.559C219.271 194.653 223.131 188.562 223.131 181.963V169.965C223.131 176.564 219.271 182.655 212.752 187.561C209.353 190.119 205.231 192.355 200.556 194.173C195.674 196.072 190.188 197.514 184.295 198.39C180.031 199.024 175.554 199.362 170.937 199.362C166.108 199.362 161.433 198.992 156.994 198.301C150.824 197.34 145.112 195.757 140.085 193.679C135.181 191.651 130.929 189.153 127.539 186.302C121.983 181.63 118.742 176.01 118.742 169.965V181.963C118.742 188.009 121.983 193.629 127.539 198.301C130.929 201.152 135.181 203.65 140.085 205.677C145.112 207.755 150.824 209.339 156.994 210.3C161.433 210.991 166.108 211.36 170.937 211.36Z" fill="#844DFF"/>
<path d="M222.231 169.965C222.231 176.184 218.594 182.038 212.211 186.842C208.888 189.343 204.841 191.541 200.23 193.334C195.415 195.207 189.995 196.633 184.163 197.5C179.944 198.127 175.51 198.462 170.937 198.462C166.154 198.462 161.525 198.096 157.133 197.412C151.026 196.461 145.384 194.895 140.429 192.847C135.594 190.848 131.425 188.394 128.118 185.614C122.694 181.052 119.642 175.664 119.642 169.965C119.642 162.316 125.156 155.209 134.471 149.962C143.759 144.731 156.649 141.468 170.937 141.468C185.224 141.468 198.115 144.731 207.402 149.962C216.717 155.209 222.231 162.316 222.231 169.965ZM119.642 181.963V177.849C121.199 181.179 123.711 184.259 126.96 186.991C130.433 189.912 134.769 192.455 139.741 194.51C144.84 196.618 150.622 198.219 156.856 199.19C161.341 199.889 166.062 200.261 170.937 200.261C175.598 200.261 180.119 199.921 184.427 199.28C190.381 198.395 195.932 196.937 200.882 195.012C205.62 193.169 209.818 190.895 213.293 188.28C217.333 185.24 220.425 181.713 222.231 177.849V181.963C222.231 188.183 218.594 194.036 212.211 198.84C208.888 201.341 204.841 203.54 200.23 205.333C195.415 207.205 189.995 208.631 184.163 209.498C179.944 210.126 175.51 210.46 170.937 210.46C166.154 210.46 161.525 210.094 157.133 209.411C151.026 208.459 145.384 206.894 140.429 204.846C135.594 202.847 131.425 200.393 128.118 197.612C122.694 193.051 119.642 187.663 119.642 181.963Z" stroke="#6A46BD" stroke-width="1.79981"/>
<path d="M207.833 169.965C207.833 175.288 203.939 180.296 197.226 184.026C190.543 187.738 181.251 190.063 170.937 190.063C160.623 190.063 151.331 187.738 144.648 184.026C137.935 180.296 134.041 175.288 134.041 169.965C134.041 164.642 137.935 159.633 144.648 155.904C151.331 152.191 160.623 149.867 170.937 149.867C181.251 149.867 190.543 152.191 197.226 155.904C203.939 159.633 207.833 164.642 207.833 169.965Z" fill="#CCB6FC" stroke="#6A46BD" stroke-width="1.79981"/>
<path d="M341.024 169.965C341.024 176.564 337.164 182.655 330.645 187.561C327.246 190.119 323.124 192.355 318.449 194.173C313.567 196.072 308.082 197.514 302.188 198.39C297.925 199.024 293.447 199.362 288.83 199.362C284.001 199.362 279.326 198.992 274.888 198.301C268.717 197.34 263.005 195.757 257.978 193.679C253.074 191.651 248.822 189.153 245.432 186.302C239.876 181.63 236.636 176.01 236.636 169.965C236.636 153.729 260.004 140.568 288.83 140.568C317.656 140.568 341.024 153.729 341.024 169.965Z" fill="#DCCCFF"/>
<path d="M288.83 211.36C293.447 211.36 297.925 211.023 302.188 210.389C308.082 209.512 313.567 208.07 318.449 206.172C323.124 204.354 327.246 202.118 330.645 199.559C337.164 194.653 341.024 188.562 341.024 181.963V169.965C341.024 176.564 337.164 182.655 330.645 187.561C327.246 190.119 323.124 192.355 318.449 194.173C313.567 196.072 308.082 197.514 302.188 198.39C297.925 199.024 293.447 199.362 288.83 199.362C284.001 199.362 279.326 198.992 274.888 198.301C268.717 197.34 263.005 195.757 257.978 193.679C253.074 191.651 248.822 189.153 245.432 186.302C239.876 181.63 236.636 176.01 236.636 169.965V181.963C236.636 188.009 239.876 193.629 245.432 198.301C248.822 201.152 253.074 203.65 257.978 205.677C263.005 207.755 268.717 209.339 274.888 210.3C279.326 210.991 284.001 211.36 288.83 211.36Z" fill="#844DFF"/>
<path d="M340.124 169.965C340.124 176.184 336.487 182.038 330.104 186.842C326.781 189.343 322.734 191.541 318.123 193.334C313.308 195.207 307.889 196.633 302.056 197.5C297.837 198.127 293.404 198.462 288.83 198.462C284.047 198.462 279.418 198.096 275.026 197.412C268.919 196.461 263.277 194.895 258.322 192.847C253.487 190.848 249.318 188.394 246.011 185.614C240.587 181.052 237.536 175.664 237.536 169.965C237.536 162.316 243.049 155.209 252.365 149.962C261.652 144.731 274.542 141.468 288.83 141.468C303.118 141.468 316.008 144.731 325.295 149.962C334.61 155.209 340.124 162.316 340.124 169.965ZM237.536 181.963V177.849C239.092 181.179 241.604 184.259 244.853 186.991C248.326 189.912 252.662 192.455 257.635 194.51C262.733 196.618 268.515 198.219 274.749 199.19C279.234 199.889 283.956 200.261 288.83 200.261C293.491 200.261 298.013 199.921 302.321 199.28C308.275 198.395 313.825 196.937 318.776 195.012C323.514 193.169 327.711 190.895 331.186 188.28C335.226 185.24 338.318 181.713 340.124 177.849V181.963C340.124 188.183 336.487 194.036 330.104 198.84C326.781 201.341 322.734 203.54 318.123 205.333C313.308 207.205 307.889 208.631 302.056 209.498C297.837 210.126 293.404 210.46 288.83 210.46C284.047 210.46 279.418 210.094 275.026 209.411C268.919 208.459 263.277 206.894 258.322 204.846C253.487 202.847 249.318 200.393 246.011 197.612C240.587 193.051 237.536 187.663 237.536 181.963Z" stroke="#6A46BD" stroke-width="1.79981"/>
<path d="M325.726 169.965C325.726 175.288 321.832 180.296 315.119 184.026C308.436 187.738 299.144 190.063 288.83 190.063C278.517 190.063 269.224 187.738 262.541 184.026C255.828 180.296 251.934 175.288 251.934 169.965C251.934 164.642 255.828 159.633 262.541 155.904C269.224 152.191 278.517 149.867 288.83 149.867C299.144 149.867 308.436 152.191 315.119 155.904C321.832 159.633 325.726 164.642 325.726 169.965Z" fill="#CCB6FC" stroke="#6A46BD" stroke-width="1.79981"/>
<path d="M224.147 149.989C224.147 156.588 220.287 162.679 213.768 167.585C210.369 170.143 206.247 172.379 201.573 174.197C196.69 176.095 191.205 177.538 185.311 178.414C181.048 179.048 176.57 179.385 171.953 179.385C167.124 179.385 162.449 179.016 158.011 178.325C151.84 177.364 146.128 175.781 141.102 173.703C136.197 171.675 131.945 169.177 128.555 166.326C122.999 161.654 119.759 156.034 119.759 149.989C119.759 133.753 143.127 120.592 171.953 120.592C200.779 120.592 224.147 133.753 224.147 149.989Z" fill="#DCCCFF"/>
<path d="M171.953 191.384C176.57 191.384 181.048 191.046 185.311 190.413C191.205 189.536 196.69 188.094 201.573 186.195C206.247 184.378 210.369 182.142 213.768 179.583C220.287 174.677 224.147 168.586 224.147 161.987V149.989C224.147 156.588 220.287 162.679 213.768 167.585C210.369 170.143 206.247 172.379 201.573 174.197C196.69 176.095 191.205 177.538 185.311 178.414C181.048 179.048 176.57 179.385 171.953 179.385C167.124 179.385 162.449 179.016 158.011 178.325C151.84 177.364 146.128 175.781 141.102 173.703C136.197 171.675 131.945 169.177 128.555 166.326C122.999 161.654 119.759 156.034 119.759 149.989V161.987C119.759 168.033 122.999 173.653 128.555 178.325C131.945 181.176 136.197 183.674 141.102 185.701C146.128 187.779 151.84 189.363 158.011 190.324C162.449 191.015 167.124 191.384 171.953 191.384Z" fill="#844DFF"/>
<path d="M223.248 149.989C223.248 156.208 219.61 162.062 213.227 166.866C209.904 169.367 205.857 171.565 201.246 173.358C196.431 175.23 191.012 176.657 185.179 177.524C180.96 178.151 176.527 178.486 171.953 178.486C167.17 178.486 162.541 178.12 158.149 177.436C152.042 176.485 146.4 174.919 141.445 172.871C136.61 170.872 132.441 168.418 129.134 165.637C123.711 161.076 120.659 155.688 120.659 149.989C120.659 142.34 126.173 135.232 135.488 129.986C144.775 124.755 157.666 121.492 171.953 121.492C186.241 121.492 199.131 124.755 208.419 129.986C217.734 135.232 223.248 142.34 223.248 149.989ZM120.659 161.987V157.873C122.216 161.203 124.727 164.283 127.976 167.015C131.449 169.936 135.785 172.479 140.758 174.534C145.856 176.642 151.638 178.243 157.872 179.214C162.357 179.913 167.079 180.285 171.953 180.285C176.614 180.285 181.136 179.944 185.444 179.304C191.398 178.419 196.949 176.96 201.899 175.036C206.637 173.193 210.834 170.919 214.31 168.304C218.349 165.264 221.441 161.737 223.248 157.873V161.987C223.248 168.207 219.61 174.06 213.227 178.864C209.904 181.365 205.857 183.564 201.246 185.357C196.431 187.229 191.012 188.655 185.179 189.522C180.96 190.15 176.527 190.484 171.953 190.484C167.17 190.484 162.541 190.118 158.149 189.434C152.042 188.483 146.4 186.918 141.445 184.87C136.61 182.871 132.441 180.417 129.134 177.636C123.711 173.075 120.659 167.687 120.659 161.987Z" stroke="#6A46BD" stroke-width="1.79981"/>
<path d="M208.849 149.989C208.849 155.312 204.955 160.32 198.242 164.05C191.56 167.762 182.267 170.087 171.953 170.087C161.64 170.087 152.347 167.762 145.665 164.05C138.952 160.32 135.057 155.312 135.057 149.989C135.057 144.666 138.952 139.657 145.665 135.928C152.347 132.215 161.64 129.891 171.953 129.891C182.267 129.891 191.56 132.215 198.242 135.928C204.955 139.657 208.849 144.666 208.849 149.989Z" fill="#CCB6FC" stroke="#6A46BD" stroke-width="1.79981"/>
<g filter="url(#filter1_i_1_978)">
<path d="M188.316 162.163C187.794 162.303 187.319 162.324 186.891 162.227C186.472 162.097 186.093 161.987 185.754 161.896L167.378 156.422C166.813 156.271 166.363 156.089 166.026 155.876C165.722 155.655 165.367 155.341 164.962 154.935L163.422 153.396C163.159 153.133 163.058 152.888 163.12 152.659C163.181 152.431 163.391 152.269 163.749 152.173L165.853 151.609C167.842 151.076 169.18 150.491 169.865 149.853C170.559 149.183 170.78 148.473 170.526 147.723C170.249 146.95 169.693 146.146 168.857 145.31C168.046 144.498 167.122 143.823 166.086 143.283C165.026 142.719 163.8 142.382 162.407 142.271C160.99 142.136 159.385 142.309 157.591 142.789L154.754 143.549C154.428 143.637 154.067 143.628 153.672 143.522C153.276 143.416 152.947 143.231 152.685 142.969L151.181 141.465C150.918 141.202 150.817 140.957 150.879 140.728C150.94 140.5 151.133 140.342 151.459 140.255L172.005 134.75C172.331 134.662 172.692 134.672 173.087 134.778C173.482 134.884 173.811 135.068 174.074 135.331L175.578 136.835C175.841 137.097 175.941 137.343 175.88 137.571C175.819 137.799 175.625 137.957 175.299 138.044L167.326 140.181L167.285 139.148C169.354 139.108 171.212 139.518 172.858 140.379C174.536 141.23 175.985 142.265 177.202 143.483C178.635 144.915 179.472 146.31 179.713 147.668C179.987 149.017 179.639 150.261 178.668 151.399C177.706 152.504 176.127 153.427 173.931 154.167L172.3 154.831L170.67 152.271L193.568 159.167C194.101 159.327 194.438 159.478 194.582 159.622C194.796 159.836 194.866 160.03 194.789 160.202C194.713 160.373 194.512 160.503 194.186 160.59L188.316 162.163ZM160.555 149.351C160.196 149.447 159.819 149.442 159.424 149.336C159.029 149.23 158.7 149.046 158.437 148.783L156.982 147.266C156.719 147.003 156.619 146.758 156.68 146.53C156.741 146.301 156.935 146.144 157.261 146.056L177.806 140.551C178.132 140.464 178.493 140.473 178.888 140.579C179.284 140.685 179.613 140.869 179.875 141.132L181.379 142.636C181.642 142.898 181.743 143.144 181.682 143.372C181.62 143.6 181.41 143.763 181.052 143.859L160.555 149.351Z" fill="#844DFF"/>
</g>
<path d="M342.041 149.989C342.041 156.588 338.18 162.679 331.662 167.585C328.262 170.143 324.14 172.379 319.466 174.197C314.583 176.095 309.098 177.538 303.205 178.414C298.941 179.048 294.464 179.385 289.846 179.385C285.018 179.385 280.342 179.016 275.904 178.325C269.733 177.364 264.021 175.781 258.995 173.703C254.09 171.675 249.838 169.177 246.448 166.326C240.892 161.654 237.652 156.034 237.652 149.989C237.652 133.753 261.02 120.592 289.846 120.592C318.672 120.592 342.041 133.753 342.041 149.989Z" fill="#DCCCFF"/>
<path d="M289.846 191.384C294.464 191.384 298.941 191.046 303.205 190.413C309.098 189.536 314.583 188.094 319.466 186.195C324.14 184.378 328.262 182.142 331.662 179.583C338.18 174.677 342.041 168.586 342.041 161.987V149.989C342.041 156.588 338.18 162.679 331.662 167.585C328.262 170.143 324.14 172.379 319.466 174.197C314.583 176.095 309.098 177.538 303.205 178.414C298.941 179.048 294.464 179.385 289.846 179.385C285.018 179.385 280.342 179.016 275.904 178.325C269.733 177.364 264.021 175.781 258.995 173.703C254.09 171.675 249.838 169.177 246.448 166.326C240.892 161.654 237.652 156.034 237.652 149.989V161.987C237.652 168.033 240.892 173.653 246.448 178.325C249.838 181.176 254.09 183.674 258.995 185.701C264.021 187.779 269.733 189.363 275.904 190.324C280.342 191.015 285.018 191.384 289.846 191.384Z" fill="#844DFF"/>
<path d="M341.141 149.989C341.141 156.208 337.504 162.062 331.12 166.866C327.797 169.367 323.75 171.565 319.14 173.358C314.325 175.23 308.905 176.657 303.072 177.524C298.853 178.151 294.42 178.486 289.846 178.486C285.063 178.486 280.434 178.12 276.042 177.436C269.935 176.485 264.293 174.919 259.338 172.871C254.503 170.872 250.334 168.418 247.027 165.637C241.604 161.076 238.552 155.688 238.552 149.989C238.552 142.34 244.066 135.232 253.381 129.986C262.668 124.755 275.559 121.492 289.846 121.492C304.134 121.492 317.024 124.755 326.312 129.986C335.627 135.232 341.141 142.34 341.141 149.989ZM238.552 161.987V157.873C240.109 161.203 242.62 164.283 245.869 167.015C249.342 169.936 253.678 172.479 258.651 174.534C263.75 176.642 269.531 178.243 275.765 179.214C280.25 179.913 284.972 180.285 289.846 180.285C294.507 180.285 299.029 179.944 303.337 179.304C309.291 178.419 314.842 176.96 319.792 175.036C324.53 173.193 328.727 170.919 332.203 168.304C336.242 165.264 339.334 161.737 341.141 157.873V161.987C341.141 168.207 337.504 174.06 331.12 178.864C327.797 181.365 323.75 183.564 319.14 185.357C314.325 187.229 308.905 188.655 303.072 189.522C298.853 190.15 294.42 190.484 289.846 190.484C285.063 190.484 280.434 190.118 276.042 189.434C269.935 188.483 264.293 186.918 259.338 184.87C254.503 182.871 250.334 180.417 247.027 177.636C241.604 173.075 238.552 167.687 238.552 161.987Z" stroke="#6A46BD" stroke-width="1.79981"/>
<path d="M326.742 149.989C326.742 155.312 322.848 160.32 316.135 164.05C309.453 167.762 300.16 170.087 289.846 170.087C279.533 170.087 270.24 167.762 263.558 164.05C256.845 160.32 252.95 155.312 252.95 149.989C252.95 144.666 256.845 139.657 263.558 135.928C270.24 132.215 279.533 129.891 289.846 129.891C300.16 129.891 309.453 132.215 316.135 135.928C322.848 139.657 326.742 144.666 326.742 149.989Z" fill="#CCB6FC" stroke="#6A46BD" stroke-width="1.79981"/>
<path d="M342.041 130.013C342.041 136.612 338.18 142.703 331.662 147.609C328.262 150.167 324.14 152.403 319.466 154.221C314.583 156.119 309.098 157.562 303.205 158.438C298.941 159.072 294.464 159.409 289.846 159.409C285.018 159.409 280.342 159.04 275.904 158.349C269.733 157.388 264.021 155.805 258.995 153.727C254.09 151.699 249.838 149.201 246.448 146.35C240.892 141.678 237.652 136.058 237.652 130.013C237.652 113.777 261.02 100.616 289.846 100.616C318.672 100.616 342.041 113.777 342.041 130.013Z" fill="#DCCCFF"/>
<path d="M289.846 171.408C294.464 171.408 298.941 171.07 303.205 170.436C309.098 169.56 314.583 168.118 319.466 166.219C324.14 164.402 328.262 162.166 331.662 159.607C338.18 154.701 342.041 148.61 342.041 142.011V130.013C342.041 136.612 338.18 142.703 331.662 147.609C328.262 150.167 324.14 152.403 319.466 154.221C314.583 156.119 309.098 157.562 303.205 158.438C298.941 159.072 294.464 159.409 289.846 159.409C285.018 159.409 280.342 159.04 275.904 158.349C269.733 157.388 264.021 155.805 258.995 153.727C254.09 151.699 249.838 149.201 246.448 146.35C240.892 141.678 237.652 136.058 237.652 130.013V142.011C237.652 148.057 240.892 153.677 246.448 158.349C249.838 161.2 254.09 163.698 258.995 165.725C264.021 167.803 269.733 169.387 275.904 170.348C280.342 171.039 285.018 171.408 289.846 171.408Z" fill="#844DFF"/>
<path d="M341.141 130.013C341.141 136.232 337.504 142.085 331.12 146.89C327.797 149.391 323.75 151.589 319.14 153.382C314.325 155.254 308.905 156.68 303.072 157.548C298.853 158.175 294.42 158.509 289.846 158.509C285.063 158.509 280.434 158.144 276.042 157.46C269.935 156.509 264.293 154.943 259.338 152.895C254.503 150.896 250.334 148.442 247.027 145.661C241.604 141.1 238.552 135.712 238.552 130.013C238.552 122.364 244.066 115.256 253.381 110.01C262.668 104.779 275.559 101.516 289.846 101.516C304.134 101.516 317.024 104.779 326.312 110.01C335.627 115.256 341.141 122.364 341.141 130.013ZM238.552 142.011V137.897C240.109 141.227 242.62 144.307 245.869 147.039C249.342 149.96 253.678 152.503 258.651 154.558C263.75 156.666 269.531 158.267 275.765 159.238C280.25 159.936 284.972 160.309 289.846 160.309C294.507 160.309 299.029 159.968 303.337 159.328C309.291 158.443 314.842 156.984 319.792 155.059C324.53 153.217 328.727 150.943 332.203 148.328C336.242 145.288 339.334 141.761 341.141 137.897V142.011C341.141 148.231 337.504 154.084 331.12 158.888C327.797 161.389 323.75 163.588 319.14 165.381C314.325 167.253 308.905 168.679 303.072 169.546C298.853 170.174 294.42 170.508 289.846 170.508C285.063 170.508 280.434 170.142 276.042 169.458C269.935 168.507 264.293 166.942 259.338 164.894C254.503 162.895 250.334 160.441 247.027 157.66C241.604 153.099 238.552 147.711 238.552 142.011Z" stroke="#6A46BD" stroke-width="1.79981"/>
<path d="M326.742 130.013C326.742 135.336 322.848 140.344 316.135 144.074C309.453 147.786 300.16 150.11 289.846 150.11C279.533 150.11 270.24 147.786 263.558 144.074C256.845 140.344 252.95 135.336 252.95 130.013C252.95 124.689 256.845 119.681 263.558 115.952C270.24 112.239 279.533 109.915 289.846 109.915C300.16 109.915 309.453 112.239 316.135 115.952C322.848 119.681 326.742 124.689 326.742 130.013Z" fill="#CCB6FC" stroke="#6A46BD" stroke-width="1.79981"/>
<path d="M342.041 110.036C342.041 116.635 338.18 122.727 331.662 127.632C328.262 130.191 324.14 132.427 319.466 134.245C314.583 136.143 309.098 137.585 303.205 138.462C298.941 139.096 294.464 139.433 289.846 139.433C285.018 139.433 280.342 139.064 275.904 138.373C269.733 137.412 264.021 135.829 258.995 133.751C254.09 131.723 249.838 129.225 246.448 126.374C240.892 121.702 237.652 116.082 237.652 110.036C237.652 93.8011 261.02 80.6396 289.846 80.6396C318.672 80.6396 342.041 93.8011 342.041 110.036Z" fill="#DCCCFF"/>
<path d="M289.846 151.432C294.464 151.432 298.941 151.094 303.205 150.46C309.098 149.584 314.583 148.142 319.466 146.243C324.14 144.426 328.262 142.19 331.662 139.631C338.18 134.725 342.041 128.634 342.041 122.035V110.036C342.041 116.635 338.18 122.727 331.662 127.632C328.262 130.191 324.14 132.427 319.466 134.245C314.583 136.143 309.098 137.585 303.205 138.462C298.941 139.096 294.464 139.433 289.846 139.433C285.018 139.433 280.342 139.064 275.904 138.373C269.733 137.412 264.021 135.829 258.995 133.751C254.09 131.723 249.838 129.225 246.448 126.374C240.892 121.702 237.652 116.082 237.652 110.036V122.035C237.652 128.081 240.892 133.7 246.448 138.373C249.838 141.224 254.09 143.722 258.995 145.749C264.021 147.827 269.733 149.41 275.904 150.371C280.342 151.063 285.018 151.432 289.846 151.432Z" fill="#844DFF"/>
<path d="M341.141 110.036C341.141 116.256 337.504 122.109 331.12 126.913C327.797 129.415 323.75 131.613 319.14 133.406C314.325 135.278 308.905 136.704 303.072 137.572C298.853 138.199 294.42 138.533 289.846 138.533C285.063 138.533 280.434 138.168 276.042 137.484C269.935 136.533 264.293 134.967 259.338 132.919C254.503 130.92 250.334 128.466 247.027 125.685C241.604 121.124 238.552 115.736 238.552 110.036C238.552 102.388 244.066 95.2803 253.381 90.0339C262.668 84.8032 275.559 81.5396 289.846 81.5396C304.134 81.5396 317.024 84.8032 326.312 90.0339C335.627 95.2803 341.141 102.388 341.141 110.036ZM238.552 122.035V117.92C240.109 121.251 242.62 124.331 245.869 127.063C249.342 129.984 253.678 132.526 258.651 134.582C263.75 136.69 269.531 138.291 275.765 139.262C280.25 139.96 284.972 140.333 289.846 140.333C294.507 140.333 299.029 139.992 303.337 139.352C309.291 138.467 314.842 137.008 319.792 135.083C324.53 133.241 328.727 130.967 332.203 128.352C336.242 125.311 339.334 121.785 341.141 117.921V122.035C341.141 128.255 337.504 134.108 331.12 138.912C327.797 141.413 323.75 143.612 319.14 145.405C314.325 147.277 308.905 148.703 303.072 149.57C298.853 150.198 294.42 150.532 289.846 150.532C285.063 150.532 280.434 150.166 276.042 149.482C269.935 148.531 264.293 146.966 259.338 144.918C254.503 142.919 250.334 140.465 247.027 137.684C241.604 133.123 238.552 127.735 238.552 122.035Z" stroke="#6A46BD" stroke-width="1.79981"/>
<path d="M326.742 110.037C326.742 115.36 322.848 120.368 316.135 124.098C309.453 127.81 300.16 130.134 289.846 130.134C279.533 130.134 270.24 127.81 263.558 124.098C256.845 120.368 252.95 115.36 252.95 110.037C252.95 104.713 256.845 99.705 263.558 95.9756C270.24 92.2631 279.533 89.9387 289.846 89.9387C300.16 89.9387 309.453 92.2631 316.135 95.9756C322.848 99.705 326.742 104.713 326.742 110.037Z" fill="#CCB6FC" stroke="#6A46BD" stroke-width="1.79981"/>
<path d="M342.041 90.0604C342.041 96.6594 338.18 102.75 331.662 107.656C328.262 110.215 324.14 112.451 319.466 114.269C314.583 116.167 309.098 117.609 303.205 118.486C298.941 119.12 294.464 119.457 289.846 119.457C285.018 119.457 280.342 119.088 275.904 118.397C269.733 117.436 264.021 115.852 258.995 113.774C254.09 111.747 249.838 109.249 246.448 106.398C240.892 101.726 237.652 96.1062 237.652 90.0604C237.652 73.825 261.02 60.6636 289.846 60.6636C318.672 60.6636 342.041 73.825 342.041 90.0604Z" fill="#DCCCFF"/>
<path d="M289.846 131.456C294.464 131.456 298.941 131.118 303.205 130.484C309.098 129.608 314.583 128.166 319.466 126.267C324.14 124.45 328.262 122.214 331.662 119.655C338.18 114.749 342.041 108.658 342.041 102.059V90.0604C342.041 96.6594 338.18 102.75 331.662 107.656C328.262 110.215 324.14 112.451 319.466 114.269C314.583 116.167 309.098 117.609 303.205 118.486C298.941 119.12 294.464 119.457 289.846 119.457C285.018 119.457 280.342 119.088 275.904 118.397C269.733 117.436 264.021 115.852 258.995 113.774C254.09 111.747 249.838 109.249 246.448 106.398C240.892 101.726 237.652 96.1062 237.652 90.0604V102.059C237.652 108.105 240.892 113.724 246.448 118.397C249.838 121.248 254.09 123.746 258.995 125.773C264.021 127.851 269.733 129.434 275.904 130.395C280.342 131.087 285.018 131.456 289.846 131.456Z" fill="#844DFF"/>
<path d="M341.141 90.0604C341.141 96.2798 337.504 102.133 331.12 106.937C327.797 109.438 323.75 111.637 319.14 113.43C314.325 115.302 308.905 116.728 303.072 117.595C298.853 118.223 294.42 118.557 289.846 118.557C285.063 118.557 280.434 118.191 276.042 117.508C269.935 116.556 264.293 114.991 259.338 112.943C254.503 110.944 250.334 108.49 247.027 105.709C241.604 101.148 238.552 95.7598 238.552 90.0604C238.552 82.4116 244.066 75.3042 253.381 70.0578C262.668 64.8271 275.559 61.5635 289.846 61.5635C304.134 61.5635 317.024 64.8271 326.312 70.0578C335.627 75.3042 341.141 82.4116 341.141 90.0604ZM238.552 102.059V97.9444C240.109 101.275 242.62 104.355 245.869 107.087C249.342 110.008 253.678 112.55 258.651 114.606C263.75 116.714 269.531 118.315 275.765 119.286C280.25 119.984 284.972 120.357 289.846 120.357C294.507 120.357 299.029 120.016 303.337 119.376C309.291 118.491 314.842 117.032 319.792 115.107C324.53 113.265 328.727 110.991 332.203 108.375C336.242 105.335 339.334 101.809 341.141 97.945V102.059C341.141 108.279 337.504 114.132 331.12 118.936C327.797 121.437 323.75 123.636 319.14 125.429C314.325 127.301 308.905 128.727 303.072 129.594C298.853 130.222 294.42 130.556 289.846 130.556C285.063 130.556 280.434 130.19 276.042 129.506C269.935 128.555 264.293 126.99 259.338 124.942C254.503 122.943 250.334 120.489 247.027 117.708C241.604 113.147 238.552 107.758 238.552 102.059Z" stroke="#6A46BD" stroke-width="1.79981"/>
<path d="M326.742 90.0605C326.742 95.3836 322.848 100.392 316.135 104.121C309.453 107.834 300.16 110.158 289.846 110.158C279.533 110.158 270.24 107.834 263.558 104.121C256.845 100.392 252.95 95.3836 252.95 90.0605C252.95 84.7373 256.845 79.7289 263.558 75.9995C270.24 72.287 279.533 69.9626 289.846 69.9626C300.16 69.9626 309.453 72.287 316.135 75.9995C322.848 79.7289 326.742 84.7373 326.742 90.0605Z" fill="#CCB6FC" stroke="#6A46BD" stroke-width="1.79981"/>
<path d="M341.024 70.0843C341.024 76.6833 337.164 82.7744 330.645 87.6803C327.246 90.2387 323.124 92.4748 318.449 94.2925C313.567 96.1912 308.082 97.6333 302.188 98.5095C297.925 99.1435 293.447 99.4811 288.83 99.4811C284.001 99.4811 279.326 99.1118 274.888 98.4206C268.717 97.4596 263.005 95.8764 257.978 93.7984C253.074 91.7711 248.822 89.2728 245.432 86.4219C239.876 81.7496 236.636 76.1301 236.636 70.0843C236.636 53.8489 260.004 40.6875 288.83 40.6875C317.656 40.6875 341.024 53.8489 341.024 70.0843Z" fill="#DCCCFF"/>
<path d="M288.83 111.48C293.447 111.48 297.925 111.142 302.188 110.508C308.082 109.632 313.567 108.19 318.449 106.291C323.124 104.474 327.246 102.237 330.645 99.6791C337.164 94.7731 341.024 88.682 341.024 82.083V70.0843C341.024 76.6833 337.164 82.7744 330.645 87.6803C327.246 90.2387 323.124 92.4748 318.449 94.2925C313.567 96.1912 308.082 97.6333 302.188 98.5095C297.925 99.1435 293.447 99.4811 288.83 99.4811C284.001 99.4811 279.326 99.1118 274.888 98.4206C268.717 97.4596 263.005 95.8764 257.978 93.7984C253.074 91.7711 248.822 89.2728 245.432 86.4219C239.876 81.7496 236.636 76.1301 236.636 70.0843V82.083C236.636 88.1288 239.876 93.7483 245.432 98.4206C248.822 101.272 253.074 103.77 257.978 105.797C263.005 107.875 268.717 109.458 274.888 110.419C279.326 111.111 284.001 111.48 288.83 111.48Z" fill="#844DFF"/>
<path d="M340.124 70.0843C340.124 76.3037 336.487 82.1572 330.104 86.9613C326.781 89.4624 322.734 91.6609 318.123 93.4538C313.308 95.3261 307.889 96.7522 302.056 97.6194C297.837 98.2467 293.404 98.5812 288.83 98.5812C284.047 98.5812 279.418 98.2154 275.026 97.5315C268.919 96.5804 263.277 95.015 258.322 92.9668C253.487 90.9678 249.318 88.5141 246.011 85.7332C240.587 81.172 237.536 75.7837 237.536 70.0843C237.536 62.4355 243.049 55.3282 252.365 50.0817C261.652 44.851 274.542 41.5874 288.83 41.5874C303.118 41.5874 316.008 44.851 325.295 50.0817C334.61 55.3282 340.124 62.4355 340.124 70.0843ZM237.536 82.083V77.9683C239.092 81.2986 241.604 84.3787 244.853 87.1107C248.326 90.0316 252.662 92.5743 257.635 94.63C262.733 96.7378 268.515 98.3389 274.749 99.3098C279.234 100.008 283.956 100.381 288.83 100.381C293.491 100.381 298.013 100.04 302.321 99.3997C308.275 98.5144 313.825 97.0562 318.776 95.1312C323.514 93.2887 327.711 91.0151 331.186 88.3994C335.226 85.3593 338.318 81.8324 340.124 77.9689V82.083C340.124 88.3024 336.487 94.1559 330.104 98.96C326.781 101.461 322.734 103.66 318.123 105.452C313.308 107.325 307.889 108.751 302.056 109.618C297.837 110.245 293.404 110.58 288.83 110.58C284.047 110.58 279.418 110.214 275.026 109.53C268.919 108.579 263.277 107.014 258.322 104.965C253.487 102.967 249.318 100.513 246.011 97.7319C240.587 93.1707 237.536 87.7824 237.536 82.083Z" stroke="#6A46BD" stroke-width="1.79981"/>
<path d="M325.726 70.0842C325.726 75.4073 321.832 80.4157 315.119 84.1451C308.436 87.8576 299.144 90.182 288.83 90.182C278.517 90.182 269.224 87.8576 262.541 84.1451C255.828 80.4157 251.934 75.4073 251.934 70.0842C251.934 64.761 255.828 59.7526 262.541 56.0232C269.224 52.3107 278.517 49.9863 288.83 49.9863C299.144 49.9863 308.436 52.3107 315.119 56.0232C321.832 59.7526 325.726 64.761 325.726 70.0842Z" fill="#CCB6FC" stroke="#6A46BD" stroke-width="1.79981"/>
<path d="M342.041 50.1082C342.041 56.7072 338.18 62.7983 331.662 67.7043C328.262 70.2627 324.14 72.4987 319.466 74.3164C314.583 76.2151 309.098 77.6573 303.205 78.5335C298.941 79.1674 294.464 79.5051 289.846 79.5051C285.018 79.5051 280.342 79.1358 275.904 78.4446C269.733 77.4836 264.021 75.9003 258.995 73.8223C254.09 71.795 249.838 69.2967 246.448 66.4459C240.892 61.7735 237.652 56.154 237.652 50.1082C237.652 33.8728 261.02 20.7114 289.846 20.7114C318.672 20.7114 342.041 33.8728 342.041 50.1082Z" fill="#DCCCFF"/>
<path d="M289.846 91.5038C294.464 91.5038 298.941 91.1661 303.205 90.5322C309.098 89.656 314.583 88.2138 319.466 86.3151C324.14 84.4974 328.262 82.2614 331.662 79.703C338.18 74.7971 342.041 68.7059 342.041 62.107V50.1082C342.041 56.7072 338.18 62.7983 331.662 67.7043C328.262 70.2627 324.14 72.4987 319.466 74.3164C314.583 76.2151 309.098 77.6573 303.205 78.5335C298.941 79.1674 294.464 79.5051 289.846 79.5051C285.018 79.5051 280.342 79.1358 275.904 78.4446C269.733 77.4836 264.021 75.9003 258.995 73.8223C254.09 71.795 249.838 69.2967 246.448 66.4459C240.892 61.7735 237.652 56.154 237.652 50.1082V62.107C237.652 68.1527 240.892 73.7722 246.448 78.4446C249.838 81.2954 254.09 83.7937 258.995 85.821C264.021 87.899 269.733 89.4823 275.904 90.4433C280.342 91.1345 285.018 91.5038 289.846 91.5038Z" fill="#844DFF"/>
<path d="M341.141 50.1082C341.141 56.3277 337.504 62.1812 331.12 66.9853C327.797 69.4863 323.75 71.6848 319.14 73.4777C314.325 75.3501 308.905 76.7762 303.072 77.6433C298.853 78.2707 294.42 78.6052 289.846 78.6052C285.063 78.6052 280.434 78.2393 276.042 77.5554C269.935 76.6043 264.293 75.039 259.338 72.9907C254.503 70.9918 250.334 68.538 247.027 65.7571C241.604 61.1959 238.552 55.8076 238.552 50.1082C238.552 42.4595 244.066 35.3521 253.381 30.1056C262.668 24.875 275.559 21.6113 289.846 21.6113C304.134 21.6113 317.024 24.875 326.312 30.1056C335.627 35.3521 341.141 42.4595 341.141 50.1082ZM238.552 62.107V57.9923C240.109 61.3225 242.62 64.4026 245.869 67.1346C249.342 70.0555 253.678 72.5983 258.651 74.654C263.75 76.7617 269.531 78.3628 275.765 79.3337C280.25 80.0322 284.972 80.405 289.846 80.405C294.507 80.405 299.029 80.0641 303.337 79.4236C309.291 78.5384 314.842 77.0801 319.792 75.1551C324.53 73.3127 328.727 71.039 332.203 68.4233C336.242 65.3832 339.334 61.8564 341.141 57.9928V62.107C341.141 68.3264 337.504 74.1799 331.12 78.984C327.797 81.485 323.75 83.6835 319.14 85.4764C314.325 87.3488 308.905 88.7749 303.072 89.6421C298.853 90.2694 294.42 90.6039 289.846 90.6039C285.063 90.6039 280.434 90.238 276.042 89.5541C269.935 88.603 264.293 87.0377 259.338 84.9894C254.503 82.9905 250.334 80.5367 247.027 77.7558C241.604 73.1946 238.552 67.8063 238.552 62.107Z" stroke="#6A46BD" stroke-width="1.79981"/>
<path d="M326.742 50.1083C326.742 55.4315 322.848 60.4399 316.135 64.1693C309.453 67.8818 300.16 70.2062 289.846 70.2062C279.533 70.2062 270.24 67.8818 263.558 64.1693C256.845 60.4399 252.95 55.4315 252.95 50.1083C252.95 44.7852 256.845 39.7768 263.558 36.0473C270.24 32.3349 279.533 30.0105 289.846 30.0105C300.16 30.0105 309.453 32.3349 316.135 36.0473C322.848 39.7768 326.742 44.7852 326.742 50.1083Z" fill="#CCB6FC" stroke="#6A46BD" stroke-width="1.79981"/>
<path d="M343.057 29.3968C343.057 35.9958 339.196 42.0869 332.678 46.9928C329.279 49.5512 325.156 51.7873 320.482 53.605C315.599 55.5037 310.114 56.9458 304.221 57.822C299.957 58.456 295.48 58.7936 290.863 58.7936C286.034 58.7936 281.358 58.4243 276.92 57.7331C270.75 56.7721 265.038 55.1889 260.011 53.1109C255.107 51.0836 250.855 48.5853 247.465 45.7344C241.909 41.0621 238.668 35.4426 238.668 29.3968C238.668 13.1614 262.036 0 290.863 0C319.689 0 343.057 13.1614 343.057 29.3968Z" fill="#DCCCFF"/>
<path d="M290.863 70.7924C295.48 70.7924 299.957 70.4547 304.221 69.8207C310.114 68.9445 315.599 67.5024 320.482 65.6037C325.156 63.786 329.279 61.5499 332.678 58.9916C339.196 54.0856 343.057 47.9945 343.057 41.3955V29.3968C343.057 35.9958 339.196 42.0869 332.678 46.9928C329.279 49.5512 325.156 51.7873 320.482 53.605C315.599 55.5037 310.114 56.9458 304.221 57.822C299.957 58.456 295.48 58.7936 290.863 58.7936C286.034 58.7936 281.358 58.4243 276.92 57.7331C270.75 56.7721 265.038 55.1889 260.011 53.1109C255.107 51.0836 250.855 48.5853 247.465 45.7344C241.909 41.0621 238.668 35.4426 238.668 29.3968V41.3955C238.668 47.4413 241.909 53.0608 247.465 57.7331C250.855 60.584 255.107 63.0823 260.011 65.1096C265.038 67.1876 270.75 68.7708 276.92 69.7318C281.358 70.423 286.034 70.7924 290.863 70.7924Z" fill="#844DFF"/>
<path d="M342.157 29.3968C342.157 35.6162 338.52 41.4697 332.137 46.2738C328.814 48.7749 324.767 50.9734 320.156 52.7663C315.341 54.6386 309.921 56.0647 304.089 56.9319C299.869 57.5592 295.436 57.8937 290.863 57.8937C286.08 57.8937 281.45 57.5279 277.059 56.844C270.952 55.8929 265.31 54.3275 260.355 52.2793C255.519 50.2803 251.351 47.8266 248.044 45.0457C242.62 40.4845 239.568 35.0962 239.568 29.3968C239.568 21.748 245.082 14.6407 254.397 9.39422C263.684 4.16353 276.575 0.899903 290.863 0.899903C305.15 0.899903 318.041 4.16353 327.328 9.39422C336.643 14.6407 342.157 21.748 342.157 29.3968ZM239.568 41.3955V37.2808C241.125 40.6111 243.637 43.6912 246.885 46.4232C250.359 49.3441 254.694 51.8868 259.667 53.9425C264.766 56.0503 270.547 57.6514 276.782 58.6223C281.266 59.3208 285.988 59.6936 290.863 59.6936C295.524 59.6936 300.045 59.3527 304.353 58.7122C310.307 57.8269 315.858 56.3687 320.808 54.4437C325.546 52.6012 329.743 50.3276 333.219 47.7119C337.258 44.6718 340.351 41.1449 342.157 37.2814V41.3955C342.157 47.6149 338.52 53.4684 332.137 58.2725C328.814 60.7736 324.767 62.9721 320.156 64.765C315.341 66.6374 309.921 68.0634 304.089 68.9306C299.869 69.5579 295.436 69.8924 290.863 69.8924C286.08 69.8924 281.45 69.5266 277.059 68.8427C270.952 67.8916 265.31 66.3262 260.355 64.278C255.519 62.279 251.351 59.8253 248.044 57.0444C242.62 52.4832 239.568 47.0949 239.568 41.3955Z" stroke="#6A46BD" stroke-width="1.79981"/>
<path d="M327.759 29.3967C327.759 34.7198 323.864 39.7282 317.152 43.4576C310.469 47.1701 301.176 49.4945 290.863 49.4945C280.549 49.4945 271.257 47.1701 264.574 43.4576C257.861 39.7282 253.967 34.7198 253.967 29.3967C253.967 24.0735 257.861 19.0651 264.574 15.3357C271.257 11.6232 280.549 9.29883 290.863 9.29883C301.176 9.29883 310.469 11.6232 317.152 15.3357C323.864 19.0651 327.759 24.0735 327.759 29.3967Z" fill="#CCB6FC" stroke="#6A46BD" stroke-width="1.79981"/>
<g filter="url(#filter2_i_1_978)">
<path d="M306.973 41.5604C306.451 41.7002 305.976 41.7215 305.548 41.6243C305.129 41.4945 304.75 41.3842 304.411 41.2934L286.036 35.8192C285.471 35.6678 285.02 35.4859 284.684 35.2734C284.38 35.0521 284.025 34.7386 283.619 34.3327L282.079 32.7929C281.817 32.5303 281.716 32.2848 281.777 32.0565C281.838 31.8283 282.048 31.6661 282.407 31.5699L284.51 31.0063C286.5 30.4733 287.837 29.8879 288.522 29.2502C289.217 28.5798 289.437 27.8699 289.184 27.1205C288.907 26.3472 288.35 25.5427 287.515 24.7072C286.703 23.8955 285.779 23.2198 284.743 22.68C283.684 22.1164 282.457 21.7791 281.064 21.668C279.648 21.533 278.042 21.7059 276.249 22.1865L273.411 22.9467C273.085 23.0341 272.725 23.0248 272.329 22.9189C271.934 22.8129 271.605 22.6286 271.342 22.366L269.838 20.862C269.576 20.5994 269.475 20.3539 269.536 20.1257C269.597 19.8974 269.791 19.7395 270.117 19.6522L290.662 14.147C290.988 14.0597 291.349 14.0689 291.745 14.1749C292.14 14.2808 292.469 14.4651 292.732 14.7277L294.236 16.2317C294.498 16.4944 294.599 16.7398 294.538 16.9681C294.477 17.1964 294.283 17.3542 293.957 17.4416L285.983 19.5781L285.942 18.5447C288.011 18.5049 289.869 18.9153 291.515 19.7758C293.194 20.6276 294.642 21.6623 295.86 22.8798C297.292 24.3122 298.129 25.7074 298.371 27.0654C298.645 28.4147 298.296 29.6583 297.325 30.7963C296.363 31.9016 294.784 32.8242 292.588 33.564L290.957 34.228L289.328 31.668L312.226 38.5638C312.758 38.7238 313.096 38.8755 313.239 39.0187C313.454 39.2336 313.523 39.4269 313.447 39.5987C313.371 39.7705 313.169 39.9001 312.843 39.9875L306.973 41.5604ZM279.213 28.748C278.854 28.8441 278.477 28.8392 278.082 28.7332C277.686 28.6273 277.357 28.443 277.094 28.1804L275.639 26.6632C275.377 26.4006 275.276 26.1552 275.337 25.9269C275.398 25.6986 275.592 25.5408 275.918 25.4534L296.464 19.9483C296.79 19.8609 297.15 19.8702 297.546 19.9761C297.941 20.0821 298.27 20.2664 298.533 20.529L300.037 22.033C300.299 22.2956 300.4 22.5411 300.339 22.7693C300.278 22.9976 300.068 23.1598 299.709 23.2559L279.213 28.748Z" fill="#844DFF"/>
</g>
<defs>
<filter id="filter0_i_1_978" x="30.6062" y="174.312" width="48.0095" height="31.2144" filterUnits="userSpaceOnUse" color-interpolation-filters="sRGB">
<feFlood flood-opacity="0" result="BackgroundImageFix"/>
<feBlend mode="normal" in="SourceGraphic" in2="BackgroundImageFix" result="shape"/>
<feColorMatrix in="SourceAlpha" type="matrix" values="0 0 0 0 0 0 0 0 0 0 0 0 0 0 0 0 0 0 127 0" result="hardAlpha"/>
<feOffset dy="1.94521"/>
<feComposite in2="hardAlpha" operator="arithmetic" k2="-1" k3="1"/>
<feColorMatrix type="matrix" values="0 0 0 0 0 0 0 0 0 0 0 0 0 0 0 0 0 0 0.25 0"/>
<feBlend mode="normal" in2="shape" result="effect1_innerShadow_1_978"/>
</filter>
<filter id="filter1_i_1_978" x="150.236" y="134.435" width="48.0095" height="31.2144" filterUnits="userSpaceOnUse" color-interpolation-filters="sRGB">
<feFlood flood-opacity="0" result="BackgroundImageFix"/>
<feBlend mode="normal" in="SourceGraphic" in2="BackgroundImageFix" result="shape"/>
<feColorMatrix in="SourceAlpha" type="matrix" values="0 0 0 0 0 0 0 0 0 0 0 0 0 0 0 0 0 0 127 0" result="hardAlpha"/>
<feOffset dy="1.94521"/>
<feComposite in2="hardAlpha" operator="arithmetic" k2="-1" k3="1"/>
<feColorMatrix type="matrix" values="0 0 0 0 0 0 0 0 0 0 0 0 0 0 0 0 0 0 0.25 0"/>
<feBlend mode="normal" in2="shape" result="effect1_innerShadow_1_978"/>
</filter>
<filter id="filter2_i_1_978" x="268.894" y="13.8325" width="48.0095" height="31.2144" filterUnits="userSpaceOnUse" color-interpolation-filters="sRGB">
<feFlood flood-opacity="0" result="BackgroundImageFix"/>
<feBlend mode="normal" in="SourceGraphic" in2="BackgroundImageFix" result="shape"/>
<feColorMatrix in="SourceAlpha" type="matrix" values="0 0 0 0 0 0 0 0 0 0 0 0 0 0 0 0 0 0 127 0" result="hardAlpha"/>
<feOffset dy="1.94521"/>
<feComposite in2="hardAlpha" operator="arithmetic" k2="-1" k3="1"/>
<feColorMatrix type="matrix" values="0 0 0 0 0 0 0 0 0 0 0 0 0 0 0 0 0 0 0.25 0"/>
<feBlend mode="normal" in2="shape" result="effect1_innerShadow_1_978"/>
</filter>
</defs>
</svg>
